<svg viewBox="0 0 16666.66 16666.66" xml:space="preserve" xmlns="http://www.w3.org/2000/svg" shape-rendering="geometricPrecision" text-rendering="geometricPrecision" image-rendering="optimizeQuality" fill-rule="evenodd" clip-rule="evenodd"><path d="M0 0h16666.66v16666.66H0z" fill="none"></path><path d="M8199.28 13668.91h3940.11v-2887.77H8199.28z" fill="#0073b6" fill-rule="nonzero" class="fill-acd4f7"></path><path d="M8274.34 13593.85h3789.99V10856.2H8274.34v2737.65zm3865.05 150.13H8199.28c-41.5 0-75.06-33.63-75.06-75.06v-2887.78c0-41.41 33.56-75.06 75.06-75.06h3940.11c41.41 0 75.06 33.65 75.06 75.06v2887.78c0 41.43-33.65 75.06-75.06 75.06z" fill="#000000" fill-rule="nonzero" class="fill-000000"></path><path d="M4520.56 6449.56h3940.09V3561.9H4520.56z" fill="#ffffff" fill-rule="nonzero" class="fill-ffffff"></path><path d="M4595.53 6374.5h3790.06V3636.95H4595.53V6374.5zm3865.12 150.13H4520.56c-41.5 0-75.09-33.63-75.09-75.06V3561.89c0-41.51 33.58-75.06 75.09-75.06h3940.09c41.41 0 75.06 33.56 75.06 75.06v2887.68c0 41.43-33.65 75.06-75.06 75.06z" fill="#000000" fill-rule="nonzero" class="fill-000000"></path><path d="M841.72 13668.91H4781.8v-2887.77H841.72z" fill="#ffffff" fill-rule="nonzero" class="fill-ffffff"></path><path d="M916.78 13593.85h3789.96V10856.2H916.78v2737.65zm3865.05 150.13H841.72c-41.41 0-75.07-33.63-75.07-75.06v-2887.78c0-41.41 33.66-75.06 75.07-75.06h3940.11c41.48 0 75.06 33.65 75.06 75.06v2887.78c0 41.43-33.58 75.06-75.06 75.06zM6444.01 9119.47c-41.17 0-74.65-33.14-75.06-74.35-3.47-341-2.94-759.49-2.42-1202.66.51-469.72 1.03-955.5-3.2-1374.94-.34-41.5 32.87-75.41 74.38-75.85h.78c41.07 0 74.62 33.14 75.06 74.38 4.13 420.2 3.62 906.41 3.11 1376.58-.51 442.72-.95 860.77 2.42 1200.99.44 41.43-32.87 75.43-74.3 75.85h-.76z" fill="#000000" fill-rule="nonzero" class="fill-000000"></path><path d="M10318.08 10817.8h-1.64c-41.41-.85-74.28-35.09-73.43-76.58 10-475.28 12.77-957.26 8.12-1432.61-.44-45.79-.85-93.09-16.56-129.58-16.83-38.94-20.3-44.02-54.71-44.81-1597.12-40.04-3390.21-19.57-4972.24-1.64-821.25 9.32-1597.03 18.12-2283.33 18.12l-5.46-.27c-17.41-1.71-48.74 13.55-60.05 32.72-15.43 26.22-17.44 64.45-18.29 111.73-9.22 461.8-5.94 930.41 9.83 1392.79 1.39 41.43-30.96 76.11-72.47 77.58-41.16 1.88-76.11-30.96-77.56-72.5-15.9-465.15-19.25-936.42-9.93-1400.92 1.03-51.65 2.42-122.68 39.16-184.91 39.01-66.16 121.59-110.94 197.16-106.37 684.84 0 1459.35-8.81 2279.3-18.2 1583.23-17.88 3377.71-38.33 4977.6 1.71 131.93 3.28 170.31 92.6 188.77 135.48 27.71 64.28 28.4 132.61 28.91 187.55 4.67 476.89 1.91 960.46-8.2 1437.26-.78 40.92-34.24 73.42-74.99 73.42zM1058.64 11556.33l-15.36-5.36c-10.86-8.46-12.77-24.17-4.31-35.12l427.71-547.21c8.54-10.96 24.17-12.94 35.2-4.31 10.88 8.54 12.77 24.17 4.23 35.13l-427.71 547.18-19.76 9.69zM1124.14 12079.89l-14.5-4.65c-11.22-8.02-13.89-23.65-5.87-34.95 250.48-351.89 514.68-700.96 785.27-1037.51 8.73-10.67 24.51-12.4 35.22-3.77 10.79 8.63 12.43 24.41 3.79 35.2-270 335.72-533.59 683.96-783.46 1035.16-4.92 6.82-12.6 10.52-20.45 10.52zM1135.78 12647.47l-15.53-5.45c-10.78-8.63-12.59-24.34-3.96-35.2l1275.89-1601.43c8.63-10.86 24.41-12.69 35.19-3.96 10.79 8.63 12.6 24.31 3.96 35.1l-1275.89 1601.55-19.67 9.39zM1097.28 13379.42l-16.39-6.14c-10.44-9.03-11.57-24.73-2.5-35.3 645.07-745.2 1275.64-1520.05 1874.19-2302.85 8.37-10.96 24.07-13.01 35.03-4.65 11.06 8.39 13.11 24.07 4.74 35.05-599.16 783.65-1230.42 1559.24-1876.17 2305.25l-18.91 8.63zM1613.09 13483.74l-15.87-5.7c-10.61-8.85-12.15-24.58-3.35-35.3 658.7-796.47 1331.28-1600.47 1998.96-2389.73 8.97-10.42 24.75-11.81 35.29-2.94 10.52 9 11.81 24.78 2.94 35.27-667.6 789.11-1340.02 1593.02-1998.61 2389.26l-19.35 9.12zM2163.68 13481.32l-15.78-5.6c-10.71-8.81-12.25-24.51-3.54-35.2l1974.62-2418.66c8.63-10.66 24.43-12.33 35.22-3.59 10.69 8.78 12.25 24.58 3.52 35.3L2183.1 13472.14l-19.42 9.19zM2793.39 13484.35l-15.02-4.99c-11.03-8.39-13.28-23.99-4.92-35.05 560.59-744.45 1154.57-1478.3 1765.37-2181.29 9.15-10.34 24.95-11.57 35.39-2.39 10.44 9.07 11.47 24.85 2.42 35.29-610.05 702.01-1203.34 1434.99-1763.25 2178.53l-20.01 9.91zM3380.37 13484.01l-15.09-5.19c-11.03-8.37-13.21-24.07-4.82-35.03 381.11-500.72 781.21-997.47 1189.32-1476.42 8.98-10.54 24.78-11.72 35.22-2.74 10.62 8.95 11.81 24.75 2.84 35.17-407.43 478.26-807.01 974.24-1187.54 1474.24l-19.93 9.96zM3936.39 13486.84l-15.43-5.33c-10.88-8.56-12.77-24.26-4.23-35.12 185.07-235.39 383.29-464.64 589.16-681.25 9.56-9.98 25.36-10.34 35.37-.83 10 9.56 10.44 25.39.96 35.34-204.84 215.48-402 443.44-586.13 677.6l-19.69 9.59zM4420.45 13497.02l-16.12-5.94c-10.54-8.88-11.91-24.65-3.04-35.22l127.7-151.5c8.9-10.61 24.68-11.89 35.29-2.93 10.52 8.9 11.91 24.58 2.94 35.19l-127.63 151.55-19.15 8.85z" fill="#000000" fill-rule="nonzero" class="fill-000000"></path><path d="M12448.21 8699.88c524.07 515.64 1048.27 1031.25 1572.35 1546.91 276.9 272.3 554.38 545.2 856.03 781.48 162.65 127.45 343.69 247.91 541.61 248.06 197.94.07 408.31-166.86 406.75-390.53-1.2-174.56-121.66-314.76-234.51-433.85-834.55-880.17-1706.8-1714.72-2612.62-2499.65-166 243.24-332.03 486.48-529.6 747.57z" fill="#ffffff" fill-rule="nonzero" class="fill-ffffff"></path><path d="m12547.68 8692.44 1525.51 1500.85c270.95 266.43 551.03 542.05 849.65 775.95 153.77 120.43 320.21 231.82 495.46 231.92h.17c85.78 0 175.93-39.26 241.33-105.02 58.58-59.02 90.59-133.45 90.08-209.91-.95-145.9-106.22-269.04-213.89-382.58-810.15-854.48-1665.63-1674.78-2543.67-2439.43-138.83 203.01-282.06 410.88-444.63 628.22zm2870.78 2658.85h-.27c-220.71-.05-413.03-126.89-587.93-263.83-305.27-239.16-588.45-517.72-862.34-787.18l-1572.35-1546.91c-26.93-26.41-30.04-68.78-7.27-98.79 195.87-258.87 363.7-504.68 526.01-742.49 12.08-17.61 31.92-30.45 53.15-33.14 21.13-3.01 43.31 2.59 59.53 16.59 904.09 783.46 1784.89 1626.2 2617.88 2504.85 122.69 129.31 253.76 284.18 255.13 484.8.78 116.84-46.67 229.28-133.74 316.86-92.92 93.55-222.94 149.24-347.8 149.24z" fill="#000000" fill-rule="nonzero" class="fill-000000"></path><path d="M10402.83 8749.04c-1371.15 0-2482.6-1111.5-2482.6-2482.57 0-1371.15 1111.45-2482.65 2482.6-2482.65 1371.05 0 2482.57 1111.5 2482.57 2482.65 0 1371.07-1111.52 2482.57-2482.57 2482.57zm0 0c-1371.15 0-2482.6-1111.5-2482.6-2482.57 0-1371.15 1111.45-2482.65 2482.6-2482.65 1371.05 0 2482.57 1111.5 2482.57 2482.65 0 1371.07-1111.52 2482.57-2482.57 2482.57zm0-5751.3c-1805.24 0-3268.72 1463.48-3268.72 3268.72 0 1805.24 1463.48 3268.65 3268.72 3268.65 1805.24 0 3268.72-1463.41 3268.72-3268.65s-1463.48-3268.72-3268.72-3268.72z" fill="#ffffff" fill-rule="nonzero" class="fill-ffffff"></path><path d="M7995.32 6266.47c0 1327.49 1080.02 2407.51 2407.51 2407.51 1327.49 0 2407.51-1080.02 2407.51-2407.51 0-1327.57-1080.02-2407.59-2407.51-2407.59-1327.49 0-2407.51 1080.02-2407.51 2407.59zm2407.51 2557.66c-1410.33 0-2557.66-1147.43-2557.66-2557.66 0-1410.31 1147.33-2557.74 2557.66-2557.74 1410.31 0 2557.64 1147.42 2557.64 2557.74 0 1410.23-1147.33 2557.66-2557.64 2557.66zm0-5751.3c-1761 0-3193.66 1432.67-3193.66 3193.64 0 1760.9 1432.67 3193.59 3193.66 3193.59 1760.97 0 3193.64-1432.69 3193.64-3193.59 0-1760.97-1432.67-3193.64-3193.64-3193.64zm0 6537.45c-1843.81 0-3343.79-1500.07-3343.79-3343.81 0-1843.81 1499.98-3343.79 3343.79-3343.79 1843.72 0 3343.69 1499.97 3343.69 3343.79 0 1843.74-1499.97 3343.81-3343.69 3343.81z" fill="#000000" fill-rule="nonzero" class="fill-000000"></path><path d="m12869.71 8793.58-6.9-.96c-13.31-3.79-20.99-17.68-17.17-30.96l57.55-201.32c3.79-13.21 17.76-21.06 30.89-17.07 13.28 3.69 20.96 17.59 17.17 30.89l-57.48 201.3c-3.18 10.96-13.21 18.13-24.07 18.13zM13144.69 9146.05l-3.28-.17c-13.72-1.81-23.38-14.43-21.57-28.15 30.79-235.46 67.82-473.08 110.19-706.22 2.5-13.55 15.43-22.26 29.08-20.1 13.62 2.49 22.7 15.43 20.18 29.15-42.19 232.28-79.2 469.04-109.84 703.65-1.64 12.59-12.43 21.84-24.75 21.84zM13501.74 9488.08c-13.82 0-25.02-11.22-25.02-25.02 0-117.72 18.13-315.2 34.07-489.42 9.76-106.2 18.13-197.85 21.06-255.57.69-13.8 12.43-25.12 26.22-23.73 13.82.69 24.43 12.43 23.75 26.22-2.93 58.68-11.4 150.91-21.15 257.65-15.87 173.09-33.9 369.4-33.9 484.84 0 13.8-11.13 25.02-25.02 25.02zM13867.32 9825.1c-13.63 0-24.75-10.88-25.02-24.39l-18.91-834.92c-.24-13.8 10.71-25.19 24.51-25.54 15.29 1.74 25.29 10.61 25.54 24.41l18.91 834.82c.27 13.79-10.69 25.29-24.51 25.61h-.51zM14215.22 10194.4c-13.45 0-24.51-10.61-25.02-24.14l-32.7-874.25c-.52-13.8 10.27-25.39 24.07-25.95 13.89 1 25.46 10.25 25.9 24.12l32.78 874.25c.51 13.82-10.28 25.39-24.07 25.97h-.96zM14569.26 10505.63c-13.21 0-24.26-10.34-24.95-23.72l-44.27-816.6c-.69-13.82 9.83-25.61 23.65-26.32 12.6-1.83 25.63 9.74 26.32 23.56l44.27 816.67c.69 13.82-9.93 25.66-23.65 26.32l-1.37.09zM14919.83 10793.32c-12.94 0-24-10.03-24.95-23.11l-61.34-795.15c-1.03-13.72 9.24-25.78 23.04-26.83 13.89-2.15 25.8 9.24 26.83 23.06l61.34 795.1c1.05 13.82-9.22 25.8-23.04 26.83l-1.88.1zM15251.68 11051.84c-12.7 0-23.56-9.61-24.95-22.57l-71.69-697.24c-1.39-13.72 8.61-26.05 22.33-27.44 13.72-2.08 25.98 8.54 27.44 22.35l71.78 697.24c1.39 13.72-8.63 26.07-22.33 27.44l-2.59.22zM15576.61 11014.71c-12.08 0-22.67-8.8-24.68-21.06l-50.38-311.58c-2.25-13.55 7.07-26.49 20.71-28.64 13.63-2.5 26.49 7.07 28.74 20.69l50.29 311.51c2.25 13.65-7.07 26.49-20.69 28.71l-3.98.37z" fill="#000000" fill-rule="nonzero" class="fill-000000"></path><path d="M12448.21 8699.88c524.07 515.64 1048.27 1031.25 1572.35 1546.91 276.9 272.3 554.38 545.2 856.03 781.48 162.65 127.45 343.69 247.91 541.61 248.06 197.94.07 408.31-166.86 406.75-390.53-1.2-174.56-121.66-314.76-234.51-433.85-834.55-880.17-1706.8-1714.72-2612.62-2499.65-166 243.24-332.03 486.48-529.6 747.57z" fill="#ffffff" fill-rule="nonzero" class="fill-ffffff"></path><path d="m12547.68 8692.44 1525.51 1500.85c270.95 266.43 551.03 542.05 849.65 775.95 153.77 120.43 320.21 231.82 495.46 231.92h.17c85.78 0 175.93-39.26 241.33-105.02 58.58-59.02 90.59-133.45 90.08-209.91-.95-145.9-106.22-269.04-213.89-382.58-810.15-854.48-1665.63-1674.78-2543.67-2439.43-138.83 203.01-282.06 410.88-444.63 628.22zm2870.78 2658.85h-.27c-220.71-.05-413.03-126.89-587.93-263.83-305.27-239.16-588.45-517.72-862.34-787.18l-1572.35-1546.91c-26.93-26.41-30.04-68.78-7.27-98.79 195.87-258.87 363.7-504.68 526.01-742.49 12.08-17.61 31.92-30.45 53.15-33.14 21.13-3.01 43.31 2.59 59.53 16.59 904.09 783.46 1784.89 1626.2 2617.88 2504.85 122.69 129.31 253.76 284.18 255.13 484.8.78 116.84-46.67 229.28-133.74 316.86-92.92 93.55-222.94 149.24-347.8 149.24z" fill="#000000" fill-rule="nonzero" class="fill-000000"></path><path d="M10402.83 8749.04c-1371.15 0-2482.6-1111.5-2482.6-2482.57 0-1371.15 1111.45-2482.65 2482.6-2482.65 1371.05 0 2482.57 1111.5 2482.57 2482.65 0 1371.07-1111.52 2482.57-2482.57 2482.57zm0 0c-1371.15 0-2482.6-1111.5-2482.6-2482.57 0-1371.15 1111.45-2482.65 2482.6-2482.65 1371.05 0 2482.57 1111.5 2482.57 2482.65 0 1371.07-1111.52 2482.57-2482.57 2482.57zm0-5751.3c-1805.24 0-3268.72 1463.48-3268.72 3268.72 0 1805.24 1463.48 3268.65 3268.72 3268.65 1805.24 0 3268.72-1463.41 3268.72-3268.65s-1463.48-3268.72-3268.72-3268.72z" fill="#ffffff" fill-rule="nonzero" class="fill-ffffff"></path><path d="M7995.32 6266.47c0 1327.49 1080.02 2407.51 2407.51 2407.51 1327.49 0 2407.51-1080.02 2407.51-2407.51 0-1327.57-1080.02-2407.59-2407.51-2407.59-1327.49 0-2407.51 1080.02-2407.51 2407.59zm2407.51 2557.66c-1410.33 0-2557.66-1147.43-2557.66-2557.66 0-1410.31 1147.33-2557.74 2557.66-2557.74 1410.31 0 2557.64 1147.42 2557.64 2557.74 0 1410.23-1147.33 2557.66-2557.64 2557.66zm0-5751.3c-1761 0-3193.66 1432.67-3193.66 3193.64 0 1760.9 1432.67 3193.59 3193.66 3193.59 1760.97 0 3193.64-1432.69 3193.64-3193.59 0-1760.97-1432.67-3193.64-3193.64-3193.64zm0 6537.45c-1843.81 0-3343.79-1500.07-3343.79-3343.81 0-1843.81 1499.98-3343.79 3343.79-3343.79 1843.72 0 3343.69 1499.97 3343.69 3343.79 0 1843.74-1499.97 3343.81-3343.69 3343.81z" fill="#000000" fill-rule="nonzero" class="fill-000000"></path><path d="m12869.71 8793.58-6.9-.96c-13.31-3.79-20.99-17.68-17.17-30.96l57.55-201.32c3.79-13.21 17.76-21.06 30.89-17.07 13.28 3.69 20.96 17.59 17.17 30.89l-57.48 201.3c-3.18 10.96-13.21 18.13-24.07 18.13zM13144.69 9146.05l-3.28-.17c-13.72-1.81-23.38-14.43-21.57-28.15 30.79-235.46 67.82-473.08 110.19-706.22 2.5-13.55 15.43-22.26 29.08-20.1 13.62 2.49 22.7 15.43 20.18 29.15-42.19 232.28-79.2 469.04-109.84 703.65-1.64 12.59-12.43 21.84-24.75 21.84zM13501.74 9488.08c-13.82 0-25.02-11.22-25.02-25.02 0-117.72 18.13-315.2 34.07-489.42 9.76-106.2 18.13-197.85 21.06-255.57.69-13.8 12.43-25.12 26.22-23.73 13.82.69 24.43 12.43 23.75 26.22-2.93 58.68-11.4 150.91-21.15 257.65-15.87 173.09-33.9 369.4-33.9 484.84 0 13.8-11.13 25.02-25.02 25.02zM13867.32 9825.1c-13.63 0-24.75-10.88-25.02-24.39l-18.91-834.92c-.24-13.8 10.71-25.19 24.51-25.54 15.29 1.74 25.29 10.61 25.54 24.41l18.91 834.82c.27 13.79-10.69 25.29-24.51 25.61h-.51zM14215.22 10194.4c-13.45 0-24.51-10.61-25.02-24.14l-32.7-874.25c-.52-13.8 10.27-25.39 24.07-25.95 13.89 1 25.46 10.25 25.9 24.12l32.78 874.25c.51 13.82-10.28 25.39-24.07 25.97h-.96zM14569.26 10505.63c-13.21 0-24.26-10.34-24.95-23.72l-44.27-816.6c-.69-13.82 9.83-25.61 23.65-26.32 12.6-1.83 25.63 9.74 26.32 23.56l44.27 816.67c.69 13.82-9.93 25.66-23.65 26.32l-1.37.09zM14919.83 10793.32c-12.94 0-24-10.03-24.95-23.11l-61.34-795.15c-1.03-13.72 9.24-25.78 23.04-26.83 13.89-2.15 25.8 9.24 26.83 23.06l61.34 795.1c1.05 13.82-9.22 25.8-23.04 26.83l-1.88.1zM15251.68 11051.84c-12.7 0-23.56-9.61-24.95-22.57l-71.69-697.24c-1.39-13.72 8.61-26.05 22.33-27.44 13.72-2.08 25.98 8.54 27.44 22.35l71.78 697.24c1.39 13.72-8.63 26.07-22.33 27.44l-2.59.22zM15576.61 11014.71c-12.08 0-22.67-8.8-24.68-21.06l-50.38-311.58c-2.25-13.55 7.07-26.49 20.71-28.64 13.63-2.5 26.49 7.07 28.74 20.69l50.29 311.51c2.25 13.65-7.07 26.49-20.69 28.71l-3.98.37zM9517.63 7568.42c-41.41 0-75.06-33.56-75.06-75.06V5845.48c0-41.41 33.65-75.06 75.06-75.06 41.5 0 75.06 33.66 75.06 75.06v1647.88c0 41.5-33.56 75.06-75.06 75.06zM11169.12 7568.42c-41.41 0-75.06-33.56-75.06-75.06V5845.48c0-41.41 33.66-75.06 75.06-75.06 41.51 0 75.07 33.66 75.07 75.06v1647.88c0 41.5-33.56 75.06-75.07 75.06zM10343.38 7568.42c-41.41 0-75.07-33.56-75.07-75.06V4840.97c0-41.41 33.66-75.06 75.07-75.06 41.5 0 75.06 33.66 75.06 75.06v2652.39c0 41.5-33.56 75.06-75.06 75.06z" fill="#000000" fill-rule="nonzero" class="fill-000000"></path><path d="M12448.21 8699.88c524.07 515.64 1048.27 1031.25 1572.35 1546.91 276.9 272.3 554.38 545.2 856.03 781.48 162.65 127.45 343.69 247.91 541.61 248.06 197.94.07 408.31-166.86 406.75-390.53-1.2-174.56-121.66-314.76-234.51-433.85-834.55-880.17-1706.8-1714.72-2612.62-2499.65-166 243.24-332.03 486.48-529.6 747.57z" fill="#ffffff" fill-rule="nonzero" class="fill-ffffff"></path><path d="m12547.68 8692.44 1525.51 1500.85c270.95 266.43 551.03 542.05 849.65 775.95 153.77 120.43 320.21 231.82 495.46 231.92h.17c85.78 0 175.93-39.26 241.33-105.02 58.58-59.02 90.59-133.45 90.08-209.91-.95-145.9-106.22-269.04-213.89-382.58-810.15-854.48-1665.63-1674.78-2543.67-2439.43-138.83 203.01-282.06 410.88-444.63 628.22zm2870.78 2658.85h-.27c-220.71-.05-413.03-126.89-587.93-263.83-305.27-239.16-588.45-517.72-862.34-787.18l-1572.35-1546.91c-26.93-26.41-30.04-68.78-7.27-98.79 195.87-258.87 363.7-504.68 526.01-742.49 12.08-17.61 31.92-30.45 53.15-33.14 21.13-3.01 43.31 2.59 59.53 16.59 904.09 783.46 1784.89 1626.2 2617.88 2504.85 122.69 129.31 253.76 284.18 255.13 484.8.78 116.84-46.67 229.28-133.74 316.86-92.92 93.55-222.94 149.24-347.8 149.24z" fill="#000000" fill-rule="nonzero" class="fill-000000"></path><path d="M10402.83 8749.04c-1371.15 0-2482.6-1111.5-2482.6-2482.57 0-1371.15 1111.45-2482.65 2482.6-2482.65 1371.05 0 2482.57 1111.5 2482.57 2482.65 0 1371.07-1111.52 2482.57-2482.57 2482.57zm0 0c-1371.15 0-2482.6-1111.5-2482.6-2482.57 0-1371.15 1111.45-2482.65 2482.6-2482.65 1371.05 0 2482.57 1111.5 2482.57 2482.65 0 1371.07-1111.52 2482.57-2482.57 2482.57zm0-5751.3c-1805.24 0-3268.72 1463.48-3268.72 3268.72 0 1805.24 1463.48 3268.65 3268.72 3268.65 1805.24 0 3268.72-1463.41 3268.72-3268.65s-1463.48-3268.72-3268.72-3268.72z" fill="#ffffff" fill-rule="nonzero" class="fill-ffffff"></path><path d="M7995.32 6266.47c0 1327.49 1080.02 2407.51 2407.51 2407.51 1327.49 0 2407.51-1080.02 2407.51-2407.51 0-1327.57-1080.02-2407.59-2407.51-2407.59-1327.49 0-2407.51 1080.02-2407.51 2407.59zm2407.51 2557.66c-1410.33 0-2557.66-1147.43-2557.66-2557.66 0-1410.31 1147.33-2557.74 2557.66-2557.74 1410.31 0 2557.64 1147.42 2557.64 2557.74 0 1410.23-1147.33 2557.66-2557.64 2557.66zm0-5751.3c-1761 0-3193.66 1432.67-3193.66 3193.64 0 1760.9 1432.67 3193.59 3193.66 3193.59 1760.97 0 3193.64-1432.69 3193.64-3193.59 0-1760.97-1432.67-3193.64-3193.64-3193.64zm0 6537.45c-1843.81 0-3343.79-1500.07-3343.79-3343.81 0-1843.81 1499.98-3343.79 3343.79-3343.79 1843.72 0 3343.69 1499.97 3343.69 3343.79 0 1843.74-1499.97 3343.81-3343.69 3343.81z" fill="#000000" fill-rule="nonzero" class="fill-000000"></path><path d="m12869.71 8793.58-6.9-.96c-13.31-3.79-20.99-17.68-17.17-30.96l57.55-201.32c3.79-13.21 17.76-21.06 30.89-17.07 13.28 3.69 20.96 17.59 17.17 30.89l-57.48 201.3c-3.18 10.96-13.21 18.13-24.07 18.13zM13144.69 9146.05l-3.28-.17c-13.72-1.81-23.38-14.43-21.57-28.15 30.79-235.46 67.82-473.08 110.19-706.22 2.5-13.55 15.43-22.26 29.08-20.1 13.62 2.49 22.7 15.43 20.18 29.15-42.19 232.28-79.2 469.04-109.84 703.65-1.64 12.59-12.43 21.84-24.75 21.84zM13501.74 9488.08c-13.82 0-25.02-11.22-25.02-25.02 0-117.72 18.13-315.2 34.07-489.42 9.76-106.2 18.13-197.85 21.06-255.57.69-13.8 12.43-25.12 26.22-23.73 13.82.69 24.43 12.43 23.75 26.22-2.93 58.68-11.4 150.91-21.15 257.65-15.87 173.09-33.9 369.4-33.9 484.84 0 13.8-11.13 25.02-25.02 25.02zM13867.32 9825.1c-13.63 0-24.75-10.88-25.02-24.39l-18.91-834.92c-.24-13.8 10.71-25.19 24.51-25.54 15.29 1.74 25.29 10.61 25.54 24.41l18.91 834.82c.27 13.79-10.69 25.29-24.51 25.61h-.51zM14215.22 10194.4c-13.45 0-24.51-10.61-25.02-24.14l-32.7-874.25c-.52-13.8 10.27-25.39 24.07-25.95 13.89 1 25.46 10.25 25.9 24.12l32.78 874.25c.51 13.82-10.28 25.39-24.07 25.97h-.96zM14569.26 10505.63c-13.21 0-24.26-10.34-24.95-23.72l-44.27-816.6c-.69-13.82 9.83-25.61 23.65-26.32 12.6-1.83 25.63 9.74 26.32 23.56l44.27 816.67c.69 13.82-9.93 25.66-23.65 26.32l-1.37.09zM14919.83 10793.32c-12.94 0-24-10.03-24.95-23.11l-61.34-795.15c-1.03-13.72 9.24-25.78 23.04-26.83 13.89-2.15 25.8 9.24 26.83 23.06l61.34 795.1c1.05 13.82-9.22 25.8-23.04 26.83l-1.88.1zM15251.68 11051.84c-12.7 0-23.56-9.61-24.95-22.57l-71.69-697.24c-1.39-13.72 8.61-26.05 22.33-27.44 13.72-2.08 25.98 8.54 27.44 22.35l71.78 697.24c1.39 13.72-8.63 26.07-22.33 27.44l-2.59.22zM15576.61 11014.71c-12.08 0-22.67-8.8-24.68-21.06l-50.38-311.58c-2.25-13.55 7.07-26.49 20.71-28.64 13.63-2.5 26.49 7.07 28.74 20.69l50.29 311.51c2.25 13.65-7.07 26.49-20.69 28.71l-3.98.37z" fill="#000000" fill-rule="nonzero" class="fill-000000"></path><path d="M7995.32 6261.11v5.36c0 1327.49 1080.02 2407.51 2407.51 2407.51 1022.91 0 1898.77-641.26 2246.94-1542.75-42.97 61.34-76.02 132.35-124.25 189.21-12.87 23.65-180.6 212.43-275.36 302.5-82.03 73.18-160.74 137.73-240.82 198.73-14.14 2.83-28.3 8.19-42.02 16.56-408.63 295.7-715.73 403.74-1232.57 498.81-133.91 25.12-278.95 47.99-445.91 47.99-138.85 0-292.87-15.87-468.19-59.36-270.68-63-401.31-137.11-683.98-327.45-120.02-84.31-387.5-319.78-569.22-539.8l-.17-.1c-195.52-267.48-262.56-501.3-302.77-607.87-40.63-109.4-71.27-221.74-103.36-333.74-47.28-154.02-61.95-207.87-61.78-338.85-29.25-81.96-56.25-164.8-80.59-248.4-15.19 108.37-23.21 219.17-23.46 331.66zm405.52 1595.41c-4.23-4.57-8.46-9.22-12.77-13.89-181.28-203.72-282.91-408.39-352.03-606.67 92.31 224.61 215.7 433.24 364.8 620.57zm4036.07-41.17c104.56-137.02 195.69-284.99 271.27-441.67-6.14 17-12.25 34.07-18.39 51.07-36.06 83.62-74.55 166.27-114.22 248.43-38.06 43.49-85.09 91.62-138.65 142.18z" fill="#0073b6" fill-rule="nonzero" class="fill-dedede"></path><path d="M10320.6 8754.57c-93.36 0-186.65-7.51-278.8-24.34l-2.57-.41c-149.71-17.69-300.55-35.3-445.59-77.41-265.5-86.26-505.02-234.78-730.21-397.16-94.75-78-244.71-162.04-462.59-398.72-149.1-187.33-272.49-395.96-364.8-620.57-37.1-106.37-64.89-210.95-90.59-312.51-42.73-336.26-48.94-675.11-5.19-1012.91 3.55-.24 7.07-.34 10.61-.34 22.87 0 45.74 5.36 66.6 14.75.44 1.46.88 2.93 1.3 4.5-15.43 110.09-23.46 222.69-23.46 337.02 0 1327.49 1080.02 2407.51 2407.51 2407.51 1022.91 0 1898.77-641.26 2246.94-1542.75 19.15-27.37 40.21-52.73 65.48-74.04 19.08-11.47 40.21-16.75 61.27-16.75 16.39 0 32.7 3.2 47.89 9.15-38.23 108.2-77.24 216.14-116.23 324.1-75.57 156.68-166.71 304.66-271.27 441.67-162.14 152.82-384.59 327.72-601.85 463-44.69 33.58-77.83 56.62-173.44 115.54-235.29 124.42-492.59 203.3-750.31 266.63-124.25 33.39-247.89 71-376.71 81.62-71.1 8.02-142.55 12.43-213.99 12.43z" fill="#000000" fill-rule="nonzero" class="fill-000000"></path><path d="M12596.52 8951.14c-18.3-13.48-34.61-29.59-48.4-47.65l48.4 47.65z" fill="#a8a8a8" fill-rule="nonzero" class="fill-a8a8a8"></path><path d="m12827.51 8967.7-205.45-202.07c192.59-171.28 365.24-364.29 514.27-575.27 81.18 71.54 162.38 143.57 243.24 215.97-2.86 5.8-5.87 11.47-9.32 17.1-34.78 57.38-76.02 110.6-119.87 161.52 9.32-54.98 19-109.84 28.91-164.39 2.52-13.72-6.56-26.66-20.18-29.15-1.39-.27-2.76-.34-4.16-.34-11.98 0-22.67 8.26-24.93 20.44-14.75 81.55-28.91 163.51-42.36 245.81-96.46 124.08-215.11 230.47-353.26 306.49-2.32 1.4-4.57 2.67-6.9 3.89zm99.57-425.48c-10.78 0-20.79 7.26-23.89 18.12l-57.55 201.32c-3.82 13.28 3.86 27.17 17.17 30.96l6.9.96c10.86 0 20.89-7.17 24.07-18.13l57.48-201.3c3.79-13.3-3.89-27.2-17.17-30.89-2.35-.69-4.67-1.05-7-1.05z" fill="#0073b6" fill-rule="nonzero" class="fill-dedede"></path><path d="M12725.01 8994.63c-47.11 0-91.72-16.41-128.48-43.49l-48.4-47.65a234.6 234.6 0 0 1-29.18-49.94c34.88-28.57 69.39-57.99 103.12-87.93l205.45 202.07c-34.27 18.64-69.02 26.93-102.5 26.93zm654.56-588.3c-80.86-72.4-162.06-144.43-243.24-215.97 17.34-24.68 34.41-49.53 51.17-74.72h4.91c17.69 0 36.22 2.59 55.91 8.19 119.58 31.57 183.95 172.82 131.24 282.5z" fill="#000000" fill-rule="nonzero" class="fill-000000"></path><path d="M12518.94 8853.55c-28.03-65.77-24.48-144.63 31.43-213.31 22.33-38.84 64.52-56.35 99.91-80.93l2.33-1.81c179.04-162.04 209.76-151.35 318.38-278.02l8.39-10c50.72-78.51 116.4-151.25 208.12-153.84-16.76 25.19-33.83 50.04-51.17 74.72-149.03 210.98-321.68 403.98-514.27 575.27a3422.953 3422.953 0 0 1-103.12 87.93zM12869.71 8793.58l-6.9-.96c-13.31-3.79-20.99-17.68-17.17-30.96l57.55-201.32c3.11-10.86 13.11-18.12 23.89-18.12 2.32 0 4.65.37 7 1.05 13.28 3.69 20.96 17.59 17.17 30.89l-57.48 201.3c-3.18 10.96-13.21 18.13-24.07 18.13zM13187.67 8657.32c13.45-82.3 27.61-164.26 42.36-245.81 2.25-12.18 12.94-20.44 24.93-20.44 1.39 0 2.76.07 4.16.34 13.62 2.49 22.7 15.43 20.18 29.15-9.91 54.54-19.59 109.4-28.91 164.39-17.34 20.18-35.1 40.04-52.98 59.7-3.28 4.23-6.46 8.46-9.74 12.67zM9517.63 7568.42c-41.41 0-75.06-33.56-75.06-75.06V5845.48c0-41.41 33.65-75.06 75.06-75.06 41.5 0 75.06 33.66 75.06 75.06v1647.88c0 41.5-33.56 75.06-75.06 75.06zM11169.12 7568.42c-41.41 0-75.06-33.56-75.06-75.06V5845.48c0-41.41 33.66-75.06 75.06-75.06 41.51 0 75.07 33.66 75.07 75.06v1647.88c0 41.5-33.56 75.06-75.07 75.06zM10343.38 7568.42c-41.41 0-75.07-33.56-75.07-75.06V4840.97c0-41.41 33.66-75.06 75.07-75.06 41.5 0 75.06 33.66 75.06 75.06v2652.39c0 41.5-33.56 75.06-75.06 75.06z" fill="#000000" fill-rule="nonzero" class="fill-000000"></path></svg>