<svg viewBox="0 0 16666.66 16666.66" xml:space="preserve" xmlns="http://www.w3.org/2000/svg" shape-rendering="geometricPrecision" text-rendering="geometricPrecision" image-rendering="optimizeQuality" fill-rule="evenodd" clip-rule="evenodd"><path d="M0 0h16666.66v16666.66H0z" fill="none"></path><path d="M1030.51 13616.26h9044.94v-2903.92H1030.51z" fill="#ffffff" fill-rule="nonzero" class="fill-ffffff"></path><path d="M1111.81 13534.87h8882.28v-2741.15H1111.81v2741.15zm8963.66 162.77H1030.5c-45 0-81.39-36.49-81.39-81.39v-2903.92c0-45 36.38-81.39 81.39-81.39h9044.97c44.9 0 81.39 36.38 81.39 81.39v2903.92c0 44.89-36.49 81.39-81.39 81.39z" fill="#000000" fill-rule="nonzero" class="fill-000000"></path><path d="M1030.51 5954.33h9044.94v-2903.9H1030.51z" fill="#ffffff" fill-rule="nonzero" class="fill-ffffff"></path><path d="M1111.81 5872.94h8882.28V3131.81H1111.81v2741.13zm8963.66 162.77H1030.5c-45 0-81.39-36.38-81.39-81.38v-2903.9c0-44.92 36.38-81.41 81.39-81.41h9044.97c44.9 0 81.39 36.49 81.39 81.41v2903.9c0 45-36.49 81.38-81.39 81.38z" fill="#000000" fill-rule="nonzero" class="fill-000000"></path><path d="M1030.51 9785.25h9044.94V6881.33H1030.51z" fill="#0073b6" fill-rule="nonzero" class="fill-acd4f7"></path><path d="M1111.81 9703.87h8882.28V6962.72H1111.81v2741.15zm8963.66 162.77H1030.5c-45 0-81.39-36.38-81.39-81.38V6881.44c0-45 36.38-81.41 81.39-81.41h9044.97c44.9 0 81.39 36.41 81.39 81.41v2903.82c0 45-36.49 81.38-81.39 81.38z" fill="#000000" fill-rule="nonzero" class="fill-000000"></path><path d="M2163.51 4473.33c0-197.85 160.44-358.29 358.29-358.29 197.96 0 358.39 160.44 358.39 358.29 0 197.85-160.43 358.29-358.39 358.29-197.85 0-358.29-160.43-358.29-358.29z" fill="#ffffff" fill-rule="nonzero" class="fill-ffffff"></path><path d="M2521.8 4196.42c-152.67 0-276.91 124.24-276.91 276.91 0 152.77 124.24 276.91 276.91 276.91 152.77 0 277.01-124.13 277.01-276.91 0-152.67-124.24-276.91-277.01-276.91zm0 716.61c-242.48 0-439.68-197.22-439.68-439.7s197.19-439.78 439.68-439.78c242.48 0 439.78 197.3 439.78 439.78 0 242.48-197.3 439.7-439.78 439.7z" fill="#000000" fill-rule="nonzero" class="fill-000000"></path><path d="M2163.51 4473.33c0-197.85 160.44-358.29 358.29-358.29 197.96 0 358.39 160.44 358.39 358.29 0 197.85-160.43 358.29-358.39 358.29-197.85 0-358.29-160.43-358.29-358.29z" fill="#ffffff" fill-rule="nonzero" class="fill-ffffff"></path><path d="M2521.8 4196.42c-152.67 0-276.91 124.24-276.91 276.91 0 152.77 124.24 276.91 276.91 276.91 152.77 0 277.01-124.13 277.01-276.91 0-152.67-124.24-276.91-277.01-276.91zm0 716.61c-242.48 0-439.68-197.22-439.68-439.7s197.19-439.78 439.68-439.78c242.48 0 439.78 197.3 439.78 439.78 0 242.48-197.3 439.7-439.78 439.7z" fill="#000000" fill-rule="nonzero" class="fill-000000"></path><path d="M2163.51 8333.34c0-197.96 160.44-358.31 358.29-358.31 197.96 0 358.39 160.35 358.39 358.31 0 197.85-160.43 358.29-358.39 358.29-197.85 0-358.29-160.44-358.29-358.29z" fill="#ffffff" fill-rule="nonzero" class="fill-ffffff"></path><path d="M2521.8 8056.41c-152.67 0-276.91 124.16-276.91 276.93 0 152.67 124.24 276.91 276.91 276.91 152.77 0 277.01-124.24 277.01-276.91 0-152.77-124.24-276.93-277.01-276.93zm0 716.61c-242.48 0-439.68-197.3-439.68-439.67 0-242.48 197.19-439.7 439.68-439.7 242.48 0 439.78 197.22 439.78 439.7 0 242.38-197.3 439.67-439.78 439.67z" fill="#000000" fill-rule="nonzero" class="fill-000000"></path><path d="M2163.51 12164.24c0-197.85 160.44-358.29 358.29-358.29 197.96 0 358.39 160.43 358.39 358.29 0 197.96-160.43 358.4-358.39 358.4-197.85 0-358.29-160.44-358.29-358.4z" fill="#ffffff" fill-rule="nonzero" class="fill-ffffff"></path><path d="M2521.8 11887.34c-152.67 0-276.91 124.24-276.91 276.91 0 152.78 124.24 276.91 276.91 276.91 152.77 0 277.01-124.13 277.01-276.91 0-152.67-124.24-276.91-277.01-276.91zm0 716.61c-242.48 0-439.68-197.22-439.68-439.7s197.19-439.67 439.68-439.67c242.48 0 439.78 197.19 439.78 439.67 0 242.48-197.3 439.7-439.78 439.7z" fill="#000000" fill-rule="nonzero" class="fill-000000"></path><path d="M2163.51 12164.24c0-197.85 160.44-358.29 358.29-358.29 197.96 0 358.39 160.43 358.39 358.29 0 197.96-160.43 358.4-358.39 358.4-197.85 0-358.29-160.44-358.29-358.4z" fill="#ffffff" fill-rule="nonzero" class="fill-ffffff"></path><path d="M2521.8 11887.34c-152.67 0-276.91 124.24-276.91 276.91 0 152.78 124.24 276.91 276.91 276.91 152.77 0 277.01-124.13 277.01-276.91 0-152.67-124.24-276.91-277.01-276.91zm0 716.61c-242.48 0-439.68-197.22-439.68-439.7s197.19-439.67 439.68-439.67c242.48 0 439.78 197.19 439.78 439.67 0 242.48-197.3 439.7-439.78 439.7z" fill="#000000" fill-rule="nonzero" class="fill-000000"></path><path d="M4001.5 8333.34c0-197.96 160.44-358.31 358.4-358.31 197.85 0 358.29 160.35 358.29 358.31 0 197.85-160.44 358.29-358.29 358.29-197.96 0-358.4-160.44-358.4-358.29z" fill="#ffffff" fill-rule="nonzero" class="fill-ffffff"></path><path d="M4359.79 8056.41c-152.67 0-276.91 124.16-276.91 276.93 0 152.67 124.24 276.91 276.91 276.91 152.77 0 277.01-124.24 277.01-276.91 0-152.77-124.24-276.93-277.01-276.93zm0 716.61c-242.38 0-439.67-197.3-439.67-439.67 0-242.48 197.3-439.7 439.67-439.7 242.48 0 439.81 197.22 439.81 439.7 0 242.38-197.32 439.67-439.81 439.67zM2151.89 13381.25l-19.17-7.95c-10.66-10.56-10.66-27.69 0-38.35 575.45-575.45 1373.7-1476.81 2135.5-2411.11 9.44-11.51 26.57-13.28 38.16-3.93 11.62 9.55 13.39 26.57 3.93 38.27-762.91 935.59-1562.57 1838.47-2139.21 2415.11l-19.2 7.95zM1554.01 13336.36l-17.76-6.66c-11.33-9.92-12.44-27.02-2.63-38.34l538.67-616.68c9.92-11.24 27.05-12.36 38.27-2.52 11.32 9.81 12.44 26.94 2.63 38.24l-538.67 616.68-20.5 9.28zM2929.78 11753.66l-17.95-6.74c-11.24-9.92-12.36-27.05-2.44-38.26l685.08-778.16c10-11.32 27.13-12.44 38.34-2.52 11.22 9.92 12.25 27.02 2.44 38.24l-685.07 778.26-20.39 9.18zM1267.29 12899.17l-16.84-5.89c-11.69-9.25-13.66-26.39-4.4-38.08 525.86-662.43 1081.63-1315.05 1652.09-1939.77 10.11-11.14 27.34-11.88 38.27-1.78 11.14 10.1 11.88 27.21 1.78 38.26-569.54 623.87-1124.56 1275.56-1649.65 1936.96l-21.24 10.29zM1294.68 12047.51l-17.47-6.37c-11.43-9.65-12.92-26.76-3.29-38.26 295.81-351.48 607.06-697.52 925.12-1028.41 10.39-10.66 27.61-11.14 38.37-.74 10.85 10.37 11.14 27.58.74 38.35-317.24 330.05-627.72 675.16-922.68 1025.78l-20.79 9.65zM1284.69 11343.52l-19.54-8.22c-10.4-10.87-10.02-27.98.74-38.37l408.17-393.93c10.85-10.29 27.95-10.1 38.35.74 10.37 10.76 10.1 27.98-.67 38.35l-408.25 393.85-18.8 7.58zM2746.7 13381.25l-17.4-6.36c-11.51-9.63-13.02-26.76-3.37-38.16 681.97-812.68 1390.17-1623.29 2104.79-2409.22 10.1-11.14 27.31-11.88 38.37-1.88 11.14 10.1 11.88 27.34 1.86 38.37-714.25 785.45-1421.86 1595.42-2103.49 2407.63l-20.76 9.63zM3383.11 13359.19l-17.29-6.28c-11.51-9.63-13.1-26.65-3.56-38.27 664.1-800.22 1356.1-1597.17 2056.24-2368.81 10.29-11.11 27.13-11.88 38.37-1.85 11.22 10.1 12.15 27.21 1.86 38.26-699.66 771.05-1391.1 1567.45-2054.65 2367.11l-20.98 9.84zM4001.5 13381.25l-17.5-6.44c-11.4-9.65-12.81-26.76-3.07-38.27l1992.35-2343.27c10.29-11.4 27.13-12.81 38.35-3.07 11.24 9.63 13.1 26.76 2.81 38.24l-1992.25 2343.27-20.69 9.54zM4592.64 13381.25l-17.11-6.07c-11.61-9.47-13.28-26.49-3.95-38.19 660.76-809.95 1344.61-1618.34 2032.21-2402.86 10.29-11.22 27.13-12.33 38.37-2.41 11.22 9.81 12.15 26.94 2.81 38.26-687.62 783.94-1371.48 1591.95-2031.28 2401.35l-21.06 9.92zM5158.44 13381.25l-16.84-5.99c-11.22-9.33-13.1-26.46-3.74-38.08 642.7-797.78 1313.46-1592.32 1993.57-2361.49 10.29-11.33 27.13-12.36 38.35-2.33 11.24 9.92 12.17 27.02 2.81 38.24-680.12 768.63-1350.87 1562.49-1992.62 2359.55l-21.54 10.1zM5759.03 13359.19l-18.7-7.13c-11.22-10-12.17-27.2-1.88-38.24 689.48-758.8 1360.23-1550.9 1994.53-2354.33 9.33-11.78 26.17-13.74 37.42-4.48 12.15 9.26 14.03 26.28 4.67 38.08-635.22 804.44-1306.91 1597.47-1996.38 2357.19l-19.65 8.91zM6326.89 13336.36l-16.84-6.47c-12.17-9.73-13.1-26.83-3.74-38.26l1841.09-2155.2c9.33-11.51 26.17-12.73 38.35-3 11.22 9.63 12.17 26.76 2.81 38.16L6348.4 13326.82l-21.51 9.55zM6905.05 13359.19l-17.79-6.47c-11.22-9.73-13.07-26.76-2.79-38.27l1801.79-2130.8c9.33-11.41 26.17-12.73 38.34-3.19 11.22 9.73 12.17 26.76 2.81 38.27l-1801.79 2130.81-20.58 9.65zM7543.05 13359.19l-17.77-6.94c-11.22-9.81-12.17-27.02-2.81-38.16 609.02-687.04 1198.39-1409.16 1752.2-2146.61 9.36-11.88 26.2-14.43 38.37-5.33 11.22 8.96 14.03 25.99 4.67 37.98-554.76 738.48-1145.06 1461.82-1754.08 2149.9l-20.58 9.17zM8124.95 13359.19l-15.91-5.62c-12.15-9.07-14.03-26.09-5.59-38.08 546.33-715.2 1128.22-1413.27 1730.67-2074.96 10.31-11.03 28.08-11.8 38.37-1.78 11.22 10.11 12.15 27.31 1.85 38.35-601.52 660.47-1182.48 1357.34-1727.89 2071.41l-21.5 10.69zM8646.03 13336.36l-17.8-6.55c-11.22-9.73-13.07-26.86-2.78-38.26l1148.8-1337.22c9.33-11.43 27.13-12.62 38.34-2.81 11.22 9.73 12.17 26.86 2.81 38.26l-1148.8 1337.11-20.57 9.47zM9149.32 13359.19l-18.7-7.03c-11.24-10.02-11.24-27.13-1.88-38.26l628.67-699c10.29-11.24 28.06-12.09 38.34-2.07 11.22 10 12.17 27.13 2.81 38.27l-629.6 699-19.65 9.09zM9688.18 13359.19l-17.77-7.03c-11.22-9.92-12.17-27.05-2.81-38.26l162.77-181.39c10.29-11.24 27.13-12.07 38.37-2.15 11.22 10 12.15 27.21 1.85 38.35l-161.84 181.39-20.58 9.09z" fill="#000000" fill-rule="nonzero" class="fill-000000"></path><path d="M11974.56 10415.97c568.8 559.06 1136.66 1118.12 1705.42 1677.18 299.37 295.26 600.61 591.15 928.04 847.39 175.87 138.08 372.34 268.66 586.56 268.87 215.17.08 443.44-180.93 441.56-423.42-1.86-189.26-131.91-341.29-254.44-470.38-904.65-954.32-1850.45-1859.13-2832.72-2710.26-179.64 263.8-360.17 527.53-574.42 810.61z" fill="#ffffff" fill-rule="nonzero" class="fill-ffffff"></path><path d="m12083.08 10407.93 1653.98 1627.22c293.77 288.97 596.88 587.78 920.56 841.3 167.44 130.5 348 251.37 536.97 251.56h.93c92.63 0 190.85-42.64 261.95-114.03 62.69-63.88 98.22-144.71 97.3-227.53-.93-158.18-115.06-291.67-232.01-414.8-878.44-926.23-1805.53-1815.71-2757.89-2644.87-149.67 218.62-304.96 443.89-481.78 681.15zm3112.44 2882.76h-.93c-238.56-.08-447.18-137.6-637.08-286.16-331.16-259.06-638-561.13-934.59-853.39l-1705.42-1677.18c-29.01-28.61-31.8-74.46-7.48-107.11 214.22-282.71 395.7-549.43 571.6-807.35 13.07-19.17 33.68-31.9 57.07-34.79 22.44-3.19 45.83 3.93 63.59 19.17 980.44 849.62 1935.58 1763.34 2838.34 2715.8 132.86 140.23 275.05 308.25 276.91 525.75.96 126.47-50.52 248.37-145 343.23-101.04 101.51-242.3 162.03-377.01 162.03z" fill="#000000" fill-rule="nonzero" class="fill-000000"></path><path d="M9757.42 10469.29c-1486.54 0-2691.46-1205.13-2691.46-2691.64 0-1486.62 1204.92-2691.75 2691.46-2691.75 1486.51 0 2691.46 1205.13 2691.46 2691.75 0 1486.52-1204.94 2691.64-2691.46 2691.64zm0 0c-1486.54 0-2691.46-1205.13-2691.46-2691.64 0-1486.62 1204.92-2691.75 2691.46-2691.75 1486.51 0 2691.46 1205.13 2691.46 2691.75 0 1486.52-1204.94 2691.64-2691.46 2691.64zm0-6235.64c-1957.09 0-3543.73 1586.62-3543.73 3544 0 1957.27 1586.65 3543.89 3543.73 3543.89s3543.7-1586.62 3543.7-3543.89c0-1957.37-1586.62-3544-3543.7-3544z" fill="#ffffff" fill-rule="nonzero" class="fill-ffffff"></path><path d="M7147.34 7777.65c0 1439.28 1170.31 2610.15 2610.07 2610.15 1438.81 0 2610.07-1170.87 2610.07-2610.15 0-1439.39-1171.26-2610.26-2610.07-2610.26-1439.76 0-2610.07 1170.87-2610.07 2610.26zm2610.07 2773.03c-1529.55 0-2772.87-1243.95-2772.87-2773.03 0-1529.1 1243.31-2773.13 2772.87-2773.13 1528.62 0 2772.84 1244.03 2772.84 2773.13 0 1529.07-1244.22 2773.03-2772.84 2773.03zm0-6235.64c-1909.38 0-3462.32 1553.31-3462.32 3462.61 0 1909.27 1552.94 3462.5 3462.32 3462.5 1909.37 0 3462.32-1553.23 3462.32-3462.5 0-1909.3-1552.94-3462.61-3462.32-3462.61zm0 7087.88c-1999.2 0-3625.12-1626.29-3625.12-3625.27 0-1999.01 1625.92-3625.38 3625.12-3625.38 1999.16 0 3625.09 1626.37 3625.09 3625.38 0 1998.98-1625.92 3625.27-3625.09 3625.27z" fill="#000000" fill-rule="nonzero" class="fill-000000"></path><path d="m12432.03 10517.48-7.48-1.04c-14.98-4.11-22.46-19.09-18.72-33.49l62.69-218.17c3.74-14.4 18.69-23.1 32.72-18.62 14.98 4.03 23.39 19.17 18.72 33.49l-61.74 218.17c-3.74 11.96-14.98 19.65-26.2 19.65zM12730.45 10899.64l-3.74-.19c-14.96-1.96-25.24-15.54-23.39-30.42 32.75-254.63 72.98-512.28 118.83-765.61 2.81-14.88 17.77-24.31 31.8-21.9 14.98 2.73 24.32 16.76 22.46 31.63-45.85 252.48-86.08 509.1-119.76 762.91-1.86 13.66-13.1 23.57-26.2 23.57zM13116.82 11270.55c-14.96 0-27.13-12.07-27.13-27.13 0-127.61 19.65-341.74 37.42-530.53 10.29-115.14 19.65-214.59 22.46-277.2.93-14.85 12.17-27.69 29.01-25.72 14.96.77 26.17 13.47 25.24 28.45-2.81 63.7-12.17 163.62-22.46 279.34-17.77 187.75-37.42 400.48-37.42 525.65 0 15.06-12.15 27.13-27.13 27.13zM13513.48 11635.97c-14.96 0-27.13-11.8-27.13-26.57l-20.58-905.1c0-14.98 12.15-27.42 26.2-27.79 17.77.56 28.06 11.59 28.06 26.46l20.57 905.2c0 14.98-11.22 27.42-26.2 27.79h-.93zM13890.49 12036.26c-14.03 0-26.2-11.51-27.13-26.09l-35.56-947.85c0-14.98 11.24-27.61 26.2-28.16 14.98 1.48 28.06 11.11 28.06 26.09l35.56 947.95c.93 14.87-11.22 27.5-26.2 28.06h-.93zM14274.98 12373.79c-14.96 0-27.13-11.22-27.13-25.62l-48.63-885.48c-.96-14.96 11.22-27.76 26.17-28.53 15.91-2.04 27.13 10.69 28.08 25.56l47.7 885.45c.93 14.96-10.29 27.79-25.27 28.53l-.93.08zM14654.8 12685.7c-14.03 0-26.2-10.85-27.13-25.06l-66.43-861.98c-.93-14.98 10.29-28.08 25.27-29.2 13.07-1.41 27.13 10 28.98 24.98l66.43 862.06c.93 14.87-10.29 27.98-25.27 29.11l-1.86.08zM15014.05 12965.97c-13.1 0-25.27-10.37-26.2-24.4l-78.6-756.09c-.93-14.88 9.36-28.17 24.34-29.65 14.03-1.88 28.99 9.15 29.94 24.13l77.65 756.17c1.86 14.88-9.36 28.16-24.34 29.65l-2.79.19zM15366.72 12925.74c-13.1 0-24.31-9.44-27.13-22.81l-54.26-337.74c-2.81-14.77 7.48-28.72 22.46-31.13 14.96-2.63 28.99 7.56 30.87 22.43l55.19 337.82c1.88 14.77-8.41 28.72-22.44 31.06l-4.69.37z" fill="#000000" fill-rule="nonzero" class="fill-000000"></path><path d="M9757.42 10387.8c-1439.76 0-2610.07-1170.87-2610.07-2610.15 0-123.97 8.41-246.04 25.25-365.5 26.2 90.75 55.21 180.65 87 269.43 0 141.9 15.91 200.37 67.36 367.28 34.61 121.51 68.28 243.3 112.25 361.95 43.04 115.54 116.02 368.95 328.38 659.06v.08c196.45 238.56 486.45 493.88 616.5 585.26 306.84 206.47 448.11 286.74 741.85 355.03 189.93 47.15 357.36 64.36 507.99 64.36 180.56 0 337.71-24.8 483.67-52 560.36-103.1 893.41-220.24 1335.89-540.81 14.98-9.07 29.94-14.88 45.85-17.98 87.01-66.14 172.13-136.12 261-215.44 102.92-97.77 284.41-302.36 298.44-327.98 52.4-61.65 87.94-138.66 134.71-205.17-377.94 977.41-1327.48 1672.59-2436.05 1672.59zm-2171.33-886.85c-4.67-4.78-8.43-9.55-13.1-14.51-196.44-220.39-306.84-441.93-381.68-656.44 100.08 242.75 233.87 468.39 394.78 670.94zm4376.3-43.89c113.2-148.63 212.36-308.99 294.7-478.98-6.55 18.43-14.03 36.97-20.58 55.4-38.37 90.64-80.46 180.27-123.5 269.32-41.15 47.26-92.6 99.44-150.62 154.26z" fill="#acd4f7" fill-rule="nonzero" class="fill-dedede"></path><path d="M9668.53 10475.29c-101.96 0-203-8.14-303.11-26.39l-2.81-.56c-161.84-18.99-325.54-38.19-482.72-83.82-288.12-93.56-547.26-254.47-791.44-430.63-102.89-84.65-265.68-175.87-502.36-432.94-160.91-202.55-294.7-428.19-394.78-670.94-40.23-115.83-70.17-229.57-98.22-340.07-46.78-364.57-53.33-731.93-5.62-1098.18 3.74-.3 7.48-.37 11.22-.37 25.27 0 49.59 5.78 72.05 15.99.93 1.59.93 3.18 1.86 4.77-16.84 119.46-25.25 241.53-25.25 365.5 0 1439.28 1170.31 2610.15 2610.07 2610.15 1108.57 0 2058.12-695.18 2436.05-1672.59 20.58-29.65 43.97-57.15 71.1-80.35 20.58-12.36 43.04-18.06 66.43-18.06 17.76 0 35.53 3.44 51.44 9.92-41.16 117.31-83.27 234.34-125.35 351.37-82.34 169.98-181.49 330.34-294.7 478.98-175.87 165.69-416.29 355.21-652.04 501.81-48.66 36.49-85.12 61.47-188.04 125.38-255.4 134.9-534.18 220.39-813.9 288.97-134.71 36.2-268.47 77.09-407.88 88.6-77.65 8.7-155.29 13.47-232.01 13.47z" fill="#000000" fill-rule="nonzero" class="fill-000000"></path><path d="M12135.48 10688.39c-19.65-14.58-37.42-32.19-52.4-51.74l52.4 51.74zM12386.18 10706.34l-222.65-219.17c208.62-185.6 395.73-394.99 557.57-623.71 87.93 77.65 175.87 155.67 263.8 234.26-3.74 6.26-6.55 12.44-10.29 18.51-37.42 62.21-82.31 119.83-130.05 175.13 10.29-59.59 20.58-118.99 31.82-178.2 1.86-14.88-7.48-28.91-22.46-31.63-.93-.27-2.81-.37-4.67-.37-12.17 0-24.31 8.99-27.13 22.28-15.91 88.41-30.87 177.28-45.85 266.43-103.85 134.53-232.94 249.89-382.63 332.2-2.78 1.48-4.67 2.89-7.48 4.3zm107.59-461.39c-11.22 0-22.43 7.96-25.24 19.84l-62.69 218.17c-3.74 14.4 3.74 29.38 18.72 33.49l7.48 1.04c11.22 0 22.46-7.69 26.2-19.65l61.74-218.17c4.67-14.32-3.74-29.46-18.72-33.49-1.86-.85-4.67-1.22-7.48-1.22z" fill="#acd4f7" fill-rule="nonzero" class="fill-dedede"></path><path d="M12274.86 10735.54c-50.52 0-99.15-17.77-139.38-47.15l-52.4-51.74c-12.15-16.65-23.39-34.9-31.8-54.07 38.34-31.05 75.76-62.87 112.25-95.41l222.65 219.17c-37.42 20.21-74.83 29.2-111.32 29.2zm710.05-637.82c-87.93-78.6-175.87-156.62-263.8-234.26 18.7-26.65 37.42-53.59 55.19-80.91 1.88 0 3.74-.11 5.62-.11 18.7 0 39.27 2.89 60.81 8.99 129.09 34.24 199.26 187.38 142.19 306.29z" fill="#000000" fill-rule="nonzero" class="fill-000000"></path><path d="M12051.28 10582.58c-29.94-71.39-26.2-156.78 34.61-231.27 24.31-42.08 70.17-61.07 108.51-87.75l1.88-1.96c194.59-175.68 227.32-164.07 345.19-301.41l9.36-10.85c55.21-85.15 126.31-164.09 225.46-166.8-17.77 27.31-36.49 54.26-55.19 80.91-161.84 228.72-348.96 438.11-557.57 623.71a3100.736 3100.736 0 0 1-112.25 95.41zM12432.03 10517.48l-7.48-1.04c-14.98-4.11-22.46-19.09-18.72-33.49l62.69-218.17c2.81-11.88 14.03-19.84 25.24-19.84 2.81 0 5.62.37 7.48 1.22 14.98 4.03 23.39 19.17 18.72 33.49l-61.74 218.17c-3.74 11.96-14.98 19.65-26.2 19.65zM12776.3 10369.85c14.98-89.15 29.94-178.02 45.85-266.43 2.81-13.28 14.96-22.28 27.13-22.28 1.86 0 3.74.11 4.67.37 14.98 2.73 24.32 16.76 22.46 31.63-11.24 59.22-21.53 118.62-31.82 178.2-18.69 21.91-38.34 43.41-57.07 64.65-3.74 4.67-7.48 9.26-11.22 13.84z" fill="#000000" fill-rule="nonzero" class="fill-000000"></path><path d="m8925.75 7151.6-421.94 393.48 1149.76 1277.53 1271.34-1850.35-471.49-374.3-886.86 1250.79z" fill="#0073b6" fill-rule="nonzero" class="fill-acd4f7"></path><path d="m8617.95 7550.05 1027.19 1141.32 1169.41-1702.56-344.29-273.62L9633 7895.79c-14.03 20.02-36.49 32.65-61.76 34.16-24.31 1.41-47.7-8.04-64.54-26.2l-585.63-636.7-303.1 283zM9653.57 8904c-22.46 0-44.9-9.73-60.81-26.94l-1148.8-1277.52c-29.94-33.02-28.08-83.75 4.67-113.95l421.91-393.48c15.91-14.77 36.49-22.91 58.95-21.8 21.51.85 42.09 10.29 56.14 26.28l572.53 622.97 828.86-1168.74c13.1-18.22 33.68-30.31 55.19-33.49 22.46-2.89 44.89 3 62.69 16.94l470.54 374.39c33.68 26.57 40.23 74.57 15.91 109.73L9720.93 8868.74c-14.03 20.5-37.42 33.5-61.73 35.09l-5.62.19z" fill="#000000" fill-rule="nonzero" class="fill-000000"></path><path d="M9429.04 11694.63c-152.48-1.14-305.92-15.43-456.52-42.37 75.76-97.22 150.6-194.7 224.5-292.55 160.91 25.09 324.64 39.48 491.15 42.56-87.01 96.74-173.06 194.22-259.14 292.36zm72.98-.37c85.13-97.85 172.13-194.96 258.21-291.33 78.57-.08 157.15-2.63 233.87-7.67v270.54c-18.72 5.7-37.42 8.43-57.07 8.43-5.62 0-11.22-.19-16.84-.56-117.87 14.77-236.68 14.77-355.5 18.51-20.58.93-42.09 1.59-62.67 2.07zm-589.37-53.43c-148.74-29.94-294.7-72.02-435.96-125.91l227.34-268.02c140.34 42.85 285.34 77.35 432.2 102.89-73.91 97.3-148.74 194.41-223.57 291.04zm-489.26-146.86a2753.1 2753.1 0 0 1-182.45-82.53c-60.8-29.09-120.66-59.22-179.61-90.74l127.24-149.11c9.36-11.4 8.41-28.54-2.81-38.16-5.62-4.4-12.17-6.55-17.77-6.55-7.48 0-15.91 3.26-20.58 9.54l-134.71 157.89c-110.4-60.44-216.13-126.39-317.16-201.04 27.15-33.39 53.33-66.8 79.53-100.19 9.36-11.8 7.48-28.82-4.67-38.08-4.69-3.93-10.29-5.81-16.84-5.81-7.51 0-15.91 3.47-20.58 10.29-27.13 33.6-53.33 67.28-80.46 100.85-37.42-29.28-73.91-59.85-108.54-91.86-51.45-47.7-66.41-113.39-55.19-174.76h259.14c275.05 184.3 578.15 331.83 899.95 435.59l-224.5 264.65z" fill="#acd4f7" fill-rule="nonzero" class="fill-dedede"></path><path d="M9994.09 11665.8v-270.54c23.39-1.51 46.78-3.18 69.24-5.14 58 63.06 69.21 169.43-.95 234.53-18.7 19.83-43.04 33.31-68.29 41.16zm-2246.16-872.09h-259.14c9.36-50.59 36.49-98.22 75.79-130.39 59.85 45.16 120.66 88.76 183.35 130.39zM7695.53 11093.27c-14.03-10.85-28.06-21.8-43.01-32.94 27.13-33.57 53.33-67.25 80.46-100.85 4.67-6.81 13.07-10.29 20.58-10.29 6.55 0 12.15 1.88 16.84 5.81 12.15 9.26 14.03 26.28 4.67 38.08-26.2 33.39-52.37 66.8-79.53 100.19zM8061.33 11320.69c-16.84-8.7-32.75-17.48-48.63-26.39l134.71-157.89c4.67-6.28 13.1-9.54 20.58-9.54 5.59 0 12.15 2.15 17.77 6.55 11.22 9.63 12.17 26.76 2.81 38.16l-127.24 149.11zM8476.69 11514.91c-17.77-6.84-35.54-13.84-53.3-20.95l224.5-264.65c18.72 5.96 37.42 11.88 56.14 17.58l-227.34 268.02zM8972.53 11652.25c-20.58-3.66-40.23-7.4-59.88-11.43 74.83-96.63 149.67-193.74 223.57-291.04 20.58 3.47 41.16 6.84 60.81 9.92-73.91 97.85-148.74 195.33-224.5 292.55zM9449.62 11694.71c-7.48 0-14.03 0-20.58-.08 86.08-98.14 172.13-195.63 259.14-292.36 23.39.48 45.85.66 69.24.66h2.81c-86.07 96.37-173.08 193.48-258.21 291.33-17.77.26-35.56.45-52.4.45z" fill="#000000" fill-rule="nonzero" class="fill-000000"></path><path d="M9757.42 11402.93c-23.39 0-45.85-.19-69.24-.66-166.51-3.08-330.24-17.48-491.15-42.56-19.65-3.07-40.23-6.44-60.81-9.92-146.86-25.54-291.86-60.04-432.2-102.89-18.72-5.7-37.42-11.61-56.14-17.58-321.8-103.77-624.91-251.29-899.95-435.59-62.69-41.63-123.5-85.23-183.35-130.39 31.8-25.46 71.1-41.18 115.99-41.18 1.88 0 4.67 0 6.55.11 2.81-.11 5.62-.19 7.48-.19 80.46 0 136.6 59.96 192.71 109.63 27.13 20.31 121.64 100.11 261.02 182.81 373.27 219.47 831.67 388.97 1153.47 427.53 99.18 7 224.53 10.29 338.67 10.29 137.52 0 259.14-4.77 304.04-13.66 1.88 0 2.81-.1 4.69-.1 46.78 0 86.05 20.57 114.13 51.55-22.46 1.96-45.85 3.63-69.24 5.14-76.72 5.04-155.29 7.59-233.87 7.67h-2.81z" fill="#000000" fill-rule="nonzero" class="fill-000000"></path></svg>