<svg viewBox="0 0 16666.66 16666.66" xml:space="preserve" xmlns="http://www.w3.org/2000/svg" shape-rendering="geometricPrecision" text-rendering="geometricPrecision" image-rendering="optimizeQuality" fill-rule="evenodd" clip-rule="evenodd"><path d="M0 0h16666.66v16666.66H0z" fill="none"></path><path d="M7312.8 11118.23c-436.22 145.31-957.43-18.79-1230.33-383.26-81.18-107.76-141.61-231.74-164.28-363.82-21.71-132.28-5.68-268.43 27.38-398.57 79.33-317.36 262.49-617.05 540.1-797.1 276.65-180.08 651.53-224.83 947.07-74.78 365.4 186.21 592.03 581.45 609.02 973.78 19.83 452.55-293.67 898.44-728.96 1043.75zm2228.39-1385.38c-103.88-475.6 101.98-1003.33 503.27-1287.45-340.86-474.85-723.28-913.64-1134.96-1324.09-193.57 233.05-795.98 768.7-1697.71 313.77-395.65-199.51-688.35-690.15-647.75-835.27-616.57 182.81-1240.72 343.24-1574.03 500.73 137.87 314.33 251.17 888.99-172.8 1385.83-298.38 351.06-1006.55 336.15-1287.93 237.09-196.38 487.43-339.92 983.98-425.84 1490.01 240.78 36.91 473.06 105.94 688.35 208.59 190.73 90.63 381.46 222.82 445.67 421.5 35.87 110.38 28.32 229.92 7.55 343.89-64.21 344.55-254 665.02-527.81 888.32 290.81 372.87 643.95 688.17 1020.7 971.99 151.06-226.43 389.01-338.98 615.63-424.53 150.13-56.93 308.76-109.26 468.34-93.84 169.02 16.14 321.99 106.58 445.67 220.36 230.4 211.98 373.91 513.2 390.91 823.2 524.04-13.59 1032.05-78.18 1531.52-179.33 36.83-294.69 53.83-573.99 152.03-831.02 98.2-256.92 289.87-492.11 553.32-581.45 338.02-114.16 703.45 27.3 1031.09 166.56 258.72-425.46 474.02-911.55 626.02-1416.13-496.66-126.63-906.44-523.21-1011.26-998.73z" fill="#0073b6" fill-rule="nonzero" class="fill-acd4f7"></path><path d="M7038.99 9091.81c-173.73 0-353.14 51.66-508.94 152.59-240.78 156.55-424.9 429.24-505.15 748.12-34.96 139.93-43.44 259.39-25.51 364.95 18.9 109.9 69.89 223.39 149.19 328.31 250.23 334.81 740.28 487.21 1137.8 354.45 402.23-134.09 692.1-547.76 673.23-962.27-16.06-382.96-237.94-737.9-564.65-904.09-108.59-55.06-230.4-82.06-355.98-82.06zm-59.5 2161.64c-370.14 0-739.31-171.68-963.1-469.2-93.46-125.67-155.8-263.8-178.44-399.39-21.74-128.53-13.22-269.88 28.32-432.29 89.69-358.71 299.32-667 574.09-845.92 316.31-205.37 720.45-236.34 1029.22-79.12 378.62 192.52 635.44 602.04 654.33 1043.27 21.71 485.15-316.31 968.89-785.59 1125.33-116.13 38.73-237.94 57.33-358.82 57.33zM5765.22 12444.6c21.74 0 43.44.94 65.15 3 168.09 16.17 338.98 99.73 492.89 241.75 226.62 208.56 373.91 496.18 410.74 799.08 449.44-16.06 903.63-69.78 1381.42-163.72 3.78-30.49 7.55-60.89 10.39-91.22 28.32-245.6 54.76-477.76 138.78-700.13 118.97-310.56 338.98-540.21 604.31-630 334.28-112.93 687.39 1.33 1023.54 140.97 225.68-382.02 416.42-813.54 556.16-1256.94-491.95-156.57-882.86-564-986.71-1036.87-105.75-479.1 85.92-1010.42 468.32-1322-295.55-406.03-629.8-795.9-1016.93-1187.67-212.44 220.31-832.81 724.78-1738.31 267.6-334.25-168.73-630.76-554.07-686.45-800.61-112.36 32.76-223.79 64.77-333.31 96.22-412.65 118.6-804.49 231.15-1059.43 339.15 96.33 259.01 240.78 860.67-215.28 1396.44-302.16 354.38-954.62 372.76-1303.02 284.01-170.93 437.56-298.38 881.73-378.65 1322.67 221.89 41.19 433.41 108.78 628.85 201.6 266.26 126.92 426.8 280.72 488.18 470.32 34.93 108.69 37.77 230.77 9.45 384.11-61.4 335.02-240.78 652.94-494.79 883.98 234.17 287.52 526.88 565.21 891.35 845.55 160.51-198.09 383.36-302.61 602.41-385.5 132.2-49.97 284.22-101.79 440.96-101.79zm893.25 1210.5c-43.44 0-79.31-33.91-81.21-77.43-17-289.6-150.13-569.28-365.4-767.48-88.78-81.95-230.4-182.99-397.52-199.03-145.42-14-292.74 36.24-431.52 88.94-219.07 82.41-439.09 187.22-575.99 393.07-12.26 18.87-32.09 31.72-54.76 35.6-22.67 3.85-45.31-1.79-63.27-15.39-433.39-325.95-772.37-648.87-1036.76-987-27.38-35.22-21.7-86.02 13.22-114.26 256.84-209.89 439.09-515.91 498.56-839.61 23.61-125.48 21.71-221.96-4.71-303.55-46.28-142.31-181.31-267.71-402.26-372.71-204.89-97.35-428.68-165.15-665.68-201.57-22.65-3.32-41.54-15.31-54.76-33.17-13.22-17.82-17.93-40.12-14.16-61.83 84.98-502.33 230.4-1009.3 430.57-1506.9 16.06-40.79 62.31-61.29 103.85-46.84 265.33 93.38 929.14 102.91 1198.24-212.84 447.57-525.27 235.11-1127.39 159.57-1299.44-17.93-40.69 0-88.38 40.6-107.36 260.59-123.41 694.94-248.14 1154.8-380.15 141.61-40.6 287.03-82.22 431.49-125.1 28.34-8.3 59.5-.75 80.27 20.29 21.71 21.06 30.22 51.95 21.71 80.75-24.55 87.71 229.46 550.01 605.28 739.69 885.67 446.64 1447.48-111.32 1598.57-292.98 14.16-17.77 35.87-28.43 58.54-29.57 23.61-.75 46.28 7.65 62.31 23.9 440.96 439.73 814.88 876.25 1142.52 1334.37 13.22 17.85 17.96 39.85 14.19 61.4-3.78 21.6-15.12 40.87-33.06 53.43-373.92 265.06-567.48 759.63-470.22 1202.87 97.24 440 479.66 816.45 950.81 936.76 21.74 5.46 40.61 19.73 50.99 39.19 11.35 19.54 14.16 42.67 7.57 64.1-152.96 508.01-372.04 1004.3-634.53 1435.14-20.77 34.85-64.21 49.09-101.98 32.95-340.86-144.85-671.36-266.37-972.55-164.29-215.3 72.88-403.2 272.2-503.27 533.01-77.43 202.83-102.94 424.8-129.36 659.82-5.68 50.13-11.35 100.74-17 151.84-4.74 35.04-31.18 63.35-65.18 70.42-537.26 108.59-1043.34 167.8-1545.68 180.83l-2.83.11z" fill="#000000" fill-rule="nonzero" class="fill-000000"></path><path d="M11467.42 9333.64c574.09 564.27 1147.22 1128.54 1721.32 1692.81 302.15 298.01 606.18 596.74 936.68 855.26 177.51 139.48 375.79 271.3 592.03 271.38 217.17.11 447.54-182.59 445.67-427.34-1.9-190.94-133.13-344.47-256.84-474.77-913.05-963.1-1867.67-1876.37-2859.12-2735.43-181.28 266.18-363.53 532.44-579.74 818.09z" fill="#ffffff" fill-rule="nonzero" class="fill-ffffff"></path><path d="m11576.95 9325.5 1669.39 1642.41c296.48 291.66 602.41 593.26 929.11 849.13 169.02 131.82 350.31 253.71 542 253.9h.94c93.49 0 192.63-43.06 263.45-115.01 64.18-64.58 99.14-146.06 99.14-229.73-.96-159.57-116.13-294.31-234.17-418.67-886.64-934.97-1822.36-1832.74-2783.59-2669.51-151.09 221.51-308.77 449.15-486.28 687.47zm3141.44 2909.73h-.94c-240.78-.19-451.35-138.96-643.02-288.83-334.28-261.55-643.98-566.44-943.3-861.42l-1721.32-1692.81c-29.28-28.88-32.12-75.16-7.57-108.11 214.37-283.85 398.48-553.51 576.93-814.2 13.22-19.35 33.99-32.5 57.6-35.41 22.67-3.32 46.28 3.67 64.21 18.98 989.55 857.35 1953.61 1779.59 2864.79 2741.08 134.07 141.75 277.58 311.23 279.48 530.65.94 127.67-50.99 250.8-146.35 346.54-101.98 102.46-244.56 163.54-380.52 163.54z" fill="#000000" fill-rule="nonzero" class="fill-000000"></path><path d="M9229.58 9387.46c-1500.37 0-2716.54-1216.36-2716.54-2716.76 0-1500.44 1216.17-2716.72 2716.54-2716.72 1500.39 0 2716.53 1216.28 2716.53 2716.72 0 1500.4-1216.14 2716.76-2716.53 2716.76zm0 0c-1500.37 0-2716.54-1216.36-2716.54-2716.76 0-1500.44 1216.17-2716.72 2716.54-2716.72 1500.39 0 2716.53 1216.28 2716.53 2716.72 0 1500.4-1216.14 2716.76-2716.53 2716.76zm0-6293.75c-1975.32 0-3576.73 1601.49-3576.73 3577 0 1975.53 1601.41 3577.02 3576.73 3577.02s3576.76-1601.49 3576.76-3577.02c0-1975.51-1601.44-3577-3576.76-3577z" fill="#ffffff" fill-rule="nonzero" class="fill-ffffff"></path><path d="M6595.19 6670.71c0 1452.7 1181.24 2634.61 2634.4 2634.61 1452.24 0 2634.39-1181.91 2634.39-2634.61 0-1452.78-1182.15-2634.58-2634.39-2634.58-1453.15 0-2634.4 1181.81-2634.4 2634.58zm2634.4 2798.9c-1543.81 0-2798.68-1255.65-2798.68-2798.9 0-1543.32 1254.87-2798.87 2798.68-2798.87 1542.87 0 2798.71 1255.54 2798.71 2798.87 0 1543.25-1255.84 2798.9-2798.71 2798.9zm0-6293.75C7302.42 3175.86 5735 4743.65 5735 6670.71c0 1926.98 1567.41 3494.88 3494.59 3494.88 1927.17 0 3494.58-1567.9 3494.58-3494.88 0-1927.06-1567.41-3494.85-3494.58-3494.85zm0 7154.02c-2017.8 0-3658.87-1641.53-3658.87-3659.17 0-2017.61 1641.07-3659.14 3658.87-3659.14 2017.82 0 3658.9 1641.53 3658.9 3659.14 0 2017.64-1641.07 3659.17-3658.9 3659.17z" fill="#000000" fill-rule="nonzero" class="fill-000000"></path><path d="M7553.58 6633.72c0-155.05 125.58-280.64 280.45-280.64 154.84 0 280.42 125.59 280.42 280.64 0 155.03-125.58 280.72-280.42 280.72-154.87 0-280.45-125.69-280.45-280.72z" fill="#ffffff" fill-rule="nonzero" class="fill-ffffff"></path><path d="M7834.03 6435.23c-109.52 0-198.31 89.05-198.31 198.49 0 109.52 88.78 198.57 198.31 198.57 109.52 0 198.28-89.05 198.28-198.57 0-109.44-88.76-198.49-198.28-198.49zm0 561.35c-200.18 0-362.59-162.79-362.59-362.86 0-200.1 162.41-362.78 362.59-362.78 200.18 0 362.57 162.68 362.57 362.78 0 200.07-162.39 362.86-362.57 362.86z" fill="#000000" fill-rule="nonzero" class="fill-000000"></path><path d="M8912.33 6633.72c0-155.05 125.58-280.64 280.42-280.64 154.87 0 280.45 125.59 280.45 280.64 0 155.03-125.58 280.72-280.45 280.72-154.84 0-280.42-125.69-280.42-280.72z" fill="#ffffff" fill-rule="nonzero" class="fill-ffffff"></path><path d="M9192.75 6435.23c-109.52 0-198.28 89.05-198.28 198.49 0 109.52 88.76 198.57 198.28 198.57 109.55 0 198.31-89.05 198.31-198.57 0-109.44-88.76-198.49-198.31-198.49zm0 561.35c-200.15 0-362.57-162.79-362.57-362.86 0-200.1 162.41-362.78 362.57-362.78 200.18 0 362.59 162.68 362.59 362.78 0 200.07-162.41 362.86-362.59 362.86z" fill="#000000" fill-rule="nonzero" class="fill-000000"></path><path d="M10271.08 6633.72c0-155.05 125.58-280.64 281.36-280.64 154.87 0 280.45 125.59 280.45 280.64 0 155.03-125.58 280.72-280.45 280.72-155.78 0-281.36-125.69-281.36-280.72z" fill="#ffffff" fill-rule="nonzero" class="fill-ffffff"></path><path d="M10552.44 6435.23c-109.52 0-199.22 89.05-199.22 198.49 0 109.52 89.69 198.57 199.22 198.57 109.55 0 198.3-89.05 198.3-198.57 0-109.44-88.75-198.49-198.3-198.49zm0 561.35c-200.15 0-363.5-162.79-363.5-362.86 0-200.1 163.35-362.78 363.5-362.78 199.24 0 362.59 162.68 362.59 362.78 0 200.07-163.35 362.86-362.59 362.86zM11929.12 9436.17l-7.55-1.04c-15.09-4.15-23.61-19.35-18.87-33.89l63.25-220.2c3.78-14.53 18.9-23.31 33.06-18.79 15.1 4.15 23.61 19.35 18.9 33.88l-62.34 220.2c-3.77 11.99-15.09 19.83-26.44 19.83zM12230.34 9821.89l-3.77-.19c-15.1-1.98-25.51-15.77-23.61-30.7 33.06-257.11 73.66-517.06 119.91-772.83 2.84-14.94 17-24.57 32.12-22.11 15.1 2.73 24.55 17 22.65 31.91-47.19 254.86-86.85 513.95-120.85 770.02-1.9 13.81-13.22 23.9-26.44 23.9zM12620.32 10196.18c-15.12 0-27.38-12.26-27.38-27.38 0-128.8 19.83-344.82 37.76-535.47 10.39-116.13 19.83-216.61 22.67-279.78.94-15.02 12.26-28.24 29.26-25.85 15.12.75 26.44 13.59 25.51 28.69-2.84 64.21-12.28 165.14-22.67 281.94-17.93 189.42-37.77 404.13-37.77 530.47 0 15.12-12.28 27.38-27.38 27.38zM13020.67 10565.01c-15.12 0-27.38-11.91-27.38-26.74l-20.8-913.64c0-15.1 11.35-27.57 26.44-27.94 16.06.86 28.35 11.62 28.35 26.74l20.77 913.53c0 15.2-11.35 27.68-26.44 28.05h-.94zM13401.2 10969.14c-14.19 0-26.44-11.62-27.41-26.37l-35.87-956.79c0-15.09 11.32-27.76 26.44-28.43 14.16.19 28.32 11.35 28.32 26.44l35.89 956.71c.94 15.09-11.35 27.83-26.44 28.43h-.94zM13789.27 11309.71c-15.12 0-27.38-11.24-27.38-25.85l-49.12-893.73c-.93-15.09 11.35-28.05 26.44-28.8 16.06-.94 27.38 10.76 28.32 25.78l48.15 893.72c.96 15.2-10.38 28.02-25.48 28.88h-.94zM14172.61 11624.52c-14.16 0-26.42-10.87-27.38-25.32l-67.02-870.01c-.96-14.99 10.38-28.21 25.48-29.36 14.16-2.06 27.38 10.12 29.28 25.21l67.05 870.01c.94 15.12-10.41 28.24-25.51 29.36l-1.9.11zM14535.2 11907.41c-13.22 0-25.48-10.49-26.44-24.65l-79.3-763.03c-.94-15.02 9.44-28.43 24.54-30.03 14.16-1.58 28.34 9.37 30.22 24.46l78.37 763.03c1.9 15.13-9.45 28.54-24.54 30.03l-2.84.19zM14891.18 11866.8c-13.22 0-24.54-9.53-27.38-23.05l-54.76-340.86c-2.84-15.02 7.55-28.99 22.64-31.45 15.13-2.62 29.28 7.76 31.19 22.67l55.7 340.97c1.87 14.91-8.51 28.88-22.67 31.34l-4.71.37z" fill="#000000" fill-rule="nonzero" class="fill-000000"></path><path d="M9229.58 9305.32c-1453.15 0-2634.4-1181.91-2634.4-2634.61 0-125.1 8.51-248.33 25.51-368.8 26.44 91.48 55.7 182.24 87.82 271.83 0 143.35 16.03 202.26 67.98 370.81 34.93 122.56 67.98 245.5 113.3 365.22 43.44 116.62 117.07 372.52 331.41 665.23v.19c198.31 240.68 491.01 498.45 622.27 590.61 309.7 208.4 452.28 289.42 748.76 358.42 191.67 47.59 360.69 64.88 512.72 64.88 182.22 0 340.86-25.03 488.15-52.41 565.61-104.14 900.8-222.26 1348.37-545.85 15.09-9.26 30.22-15.09 46.28-18.12 87.79-66.86 173.73-137.39 263.43-217.55 103.88-98.58 287.03-305.1 301.22-331.06 52.86-62.23 88.76-139.93 135.97-207.06-381.49 986.63-1339.88 1688.29-2458.79 1688.29zm-2191.53-894.77c-3.8-4.9-8.51-9.9-13.22-15.02-198.31-222.74-309.7-446.5-385.26-663.3 101.04 245.49 236.07 473.54 398.48 678.31zm4417.09-44.64c114.26-150.13 214.34-312.17 297.44-483.84-6.61 18.71-14.19 37.5-20.8 56.18-38.7 91.51-81.18 181.95-124.62 271.94-41.54 47.59-93.49 100.29-152.03 155.72z" fill="#dedede" fill-rule="nonzero" class="fill-dedede"></path><path d="M9139.89 9393.48c-102.91 0-204.89-8.19-305.93-26.52l-2.84-.56c-163.35-19.27-328.6-38.52-487.21-84.61-290.83-94.51-552.39-256.92-798.81-434.72-103.88-85.43-268.17-177.32-507.05-436.52-162.41-204.78-297.44-432.82-398.48-678.31-40.6-116.62-70.8-231.26-99.14-342.57-47.22-367.97-53.83-738.75-5.65-1108.44 3.78-.19 7.55-.38 11.32-.38 25.48 0 50.05 5.86 72.69 16.17.96 1.61.96 3.29 1.9 4.9-17 120.47-25.51 243.7-25.51 368.8 0 1452.7 1181.24 2634.61 2634.4 2634.61 1118.91 0 2077.29-701.66 2458.79-1688.29 20.77-29.84 44.37-57.6 71.76-81.02 20.77-12.47 43.44-18.23 67.02-18.23 17.96 0 35.89 3.4 51.95 9.93-41.54 118.3-84.04 236.34-126.52 354.35-83.11 171.67-183.18 333.71-297.44 483.84-177.51 167.12-421.13 358.52-658.14 506.48-49.09 36.83-85.92 62.02-189.77 126.52-257.78 136.05-539.17 222.37-821.49 291.66-135.97 36.54-271 77.73-411.68 89.43-78.37 8.7-156.74 13.49-234.17 13.49z" fill="#000000" fill-rule="nonzero" class="fill-000000"></path><path d="M11629.81 9608.6c-19.81-14.75-37.77-32.39-52.86-52.03l52.86 52.03zM11882.88 9626.72l-224.72-221.14c210.56-187.44 399.39-398.56 562.74-629.52 88.76 78.29 177.54 157.14 266.29 236.44-3.78 6.32-6.61 12.56-10.39 18.6-37.79 62.79-83.11 121.04-131.26 176.76 10.38-60.14 20.77-120.09 32.09-179.89 1.9-14.91-7.55-29.18-22.65-31.91-.96-.19-2.83-.37-4.74-.37-13.22 0-24.54 9.15-27.38 22.48-16.03 89.21-31.15 178.93-46.25 268.91-104.81 135.86-235.11 252.18-386.2 335.37-2.84 1.42-4.71 2.94-7.55 4.26zm108.59-465.59c-12.28 0-22.67 8-25.51 19.91l-63.25 220.2c-4.74 14.53 3.78 29.74 18.87 33.89l7.55 1.04c11.35 0 22.67-7.84 26.44-19.83l62.34-220.2c4.71-14.53-3.8-29.74-18.9-33.88-1.9-.75-4.71-1.13-7.55-1.13z" fill="#dedede" fill-rule="nonzero" class="fill-dedede"></path><path d="M11770.51 9656.27c-51.93 0-100.1-18.04-140.7-47.67l-52.86-52.03c-12.29-16.91-23.61-35.3-32.12-54.76 38.73-31.26 76.5-63.46 113.33-96.22l224.72 221.14c-37.77 20.5-75.53 29.55-112.36 29.55zm716.67-643.76c-88.76-79.3-177.54-158.16-266.29-236.44 18.9-27.01 37.77-54.2 55.73-81.66 1.87-.11 3.77-.11 5.65-.11 18.9 0 39.67 2.83 61.37 8.96 130.32 34.66 201.14 189.15 143.54 309.25z" fill="#000000" fill-rule="nonzero" class="fill-000000"></path><path d="M11544.82 9501.8c-30.19-71.95-26.42-158.16 34.96-233.43 24.54-42.39 69.86-61.56 109.52-88.57l1.87-1.87c196.41-177.35 229.46-165.62 348.43-304.32l9.45-10.87c55.7-85.92 127.46-165.63 227.56-168.35-17.96 27.46-36.83 54.65-55.73 81.66-163.35 230.96-352.18 442.09-562.74 629.52-36.83 32.76-74.59 64.96-113.33 96.22zM11929.12 9436.17l-7.55-1.04c-15.09-4.15-23.61-19.35-18.87-33.89l63.25-220.2c2.84-11.91 13.22-19.91 25.51-19.91 2.84 0 5.65.37 7.55 1.13 15.1 4.15 23.61 19.35 18.9 33.88l-62.34 220.2c-3.77 11.99-15.09 19.83-26.44 19.83zM12276.62 9287.09c15.09-89.98 30.22-179.7 46.25-268.91 2.84-13.33 14.16-22.48 27.38-22.48 1.9 0 3.78.19 4.74.37 15.1 2.73 24.55 17 22.65 31.91-11.32 59.8-21.71 119.75-32.09 179.89-18.9 22.08-38.7 43.81-57.6 65.33-3.77 4.63-7.55 9.26-11.32 13.89z" fill="#000000" fill-rule="nonzero" class="fill-000000"></path><path d="M3590.65 4809.27c5.67 22.08-14.16 64.96-21.7 84.69-7.55 17.19-15.1 33.81-24.54 49.49-18.9 29.17-42.5 57.3-67.99 81.02-52.89 49.83-111.42 86-178.47 111.4-27.38 10.3-55.7 17-84.02 21.92-25.51 4.26-49.11 6.61-73.66 3.88-16.06-1.71-32.12-6.8-47.22-6.91 43.44.3-4.71.56-21.7-4.33-75.56-21.63-149.19-85.09-186.02-155.24-22.67-42.48-42.5-89.69-44.38-138.62-1.9-43.81 9.45-89.31 26.44-129.54 23.61-57.79 50.99-115.57 85.92-167.13 39.67-57.89 88.75-118.41 152.03-150.42 63.25-32.39 132.19-37.66 193.57-13.6 25.48-11.99 54.76-15.84 79.31-6.42 46.28 17.58 84.98 40.04 117.07 79.04 31.19 38.44 51.95 75.83 70.82 122.37 4.74 14.45 10.39 29.09 13.22 44.19 2.84 8.89 3.78 17.74 5.68 26.63 1.87 13.89 3.77 27.76 5.65 41.65l-.94-9.45c-1.87-11.99-.94-12.47.94-1.31 1.9 13.97 3.8 28.13 5.67 42.18l.94 21.36c-.94 17.56-1.87 36.24-6.61 53.16zm847.93-235.03-136.91-461.73 288.93-415.83-710.06-502.6c-91.59 152.59-183.18 305.15-274.78 457.85l-17.93 21.7c-10.38 7.09-23.61 7.17-36.83 6.91-157.7-2.09-316.31-5.11-474.02-8.89-78.37-151.17-153.9-295.06-238.88-432.74-6.61-10.95-15.09-22.75-27.38-25.67-12.28-2.94-24.54 3.96-34.93 10.57-187.92 115.46-375.81 230.85-563.71 346.24l-13.22 11.06c-8.51 12.1-.94 28.43 5.67 41.27 70.8 128.13 155.78 248.22 252.11 357.75-84.98 159.87-174.7 308.39-271.94 450.97-23.61 34.29-50.99 70.34-89.72 82.14-33.03 9.82-67.98.67-100.07-8.78-133.13-38.14-263.45-81.48-392.81-129.81-110.46 265.97-131.23 569.92-58.54 849.32 10.39 21.33 501.4-50.24 501.4-50.24l291.77 518.4-234.17 394.5 537.26 400.52 279.49-417.25 493.82 10.01 189.8 440.3 735.54-259.76-177.51-451.32 264.39-437.94 498.56-40.9 16.03-621.39-501.37-134.66z" fill="#ffffff" fill-rule="nonzero" class="fill-ffffff"></path><path d="M3385.76 5991.35c28.32 0 53.83 13.89 68.92 37.58 86.88 133.61 143.54 266.75 195.47 396.48 200.18-28.8 399.39-93.39 595.8-192.42-61.37-136.53-129.35-257.22-195.44-374.4-17-29.55-13.22-66.46 8.48-92.63 127.48-154.94 210.57-288.75 260.62-421.02 10.39-29.28 37.76-49.68 68.92-52.7 156.74-14.99 299.32-9.42 436.22-3.96 56.66-170.15 81.2-347.09 75.56-537.83-173.74-64.1-335.21-84.5-458.9-95.18-32.12-2.73-59.5-23.87-70.82-54.39-50.99-145.04-109.52-290.62-166.19-431.51-9.45-24.65-6.61-52.67 7.55-75.05 65.15-99.81 126.52-188.56 186.02-274.32 27.38-40.31 54.76-79.87 82.14-119.43-41.54-36.83-82.14-73.55-124.65-109.07-138.78-117.93-289.87-222.26-448.51-310.94-84.02 140.22-154.84 276.19-222.82 408.2-16.06 30.03-49.11 47.11-81.2 44-181.28-18.71-364.47-11.72-543.88 20.29-37.76 6.61-76.47-13.97-90.65-50.13-55.7-138.24-118.97-274.4-189.77-405.55-196.41 92.71-367.33 200.28-508.94 320.46 74.59 127.67 155.8 238.99 228.5 335.02 19.83 27.2 21.71 64.11 3.78 92.91-104.81 166.67-203.02 324.07-276.65 491.28-16.06 36.35-55.72 56-94.43 46.55-163.35-39.75-318.22-78.83-472.12-117.74-74.59 250.61-92.53 482.05-50.99 689.85 96.3-16.03 188.86-35.87 279.49-55.03 50.05-10.79 100.1-21.44 150.13-31.45 38.73-7.66 77.43 13.11 92.56 49.38 83.08 201.49 172.8 362.11 276.65 490.98 20.77 27.2 23.61 64.88 5.67 94.43-85.94 138.62-165.25 252.96-241.72 361.36 118.97 136.16 268.17 246.72 436.22 324.05 15.1-28.05 29.28-55.62 43.44-82.89 50.99-96.41 98.2-187.33 149.19-277.61 16.03-28.43 47.21-44.27 80.24-41.46 159.58 16.81 330.48 29.01 494.79 4.74l11.32-.86zm211.5 605.73c-33.03 0-64.21-20.39-76.47-51.93-51.93-132.2-101.98-257.78-176.57-383.55-145.42 15.47-289.87 7.84-427.74-5.3-40.6 73.18-79.31 147.96-120.85 226.44-25.51 48.71-50.99 98.76-79.33 150.5-18.87 36.83-63.25 53.26-101.98 37.87-242.66-95.85-454.16-251.73-611.86-450.78-22.64-28.61-23.61-68.73-2.83-98.47 78.37-109.37 157.7-221.73 242.68-355.98-87.82-117.85-166.19-256.92-237.94-422.06-27.38 5.75-54.76 11.61-83.11 17.45-115.2 24.76-235.11 50.35-365.41 68.47-40.6 5.86-79.33-19.91-90.65-59.96-74.59-277.05-53.83-589.59 61.37-928.92 13.22-40.71 56.66-63.65 98.2-53.26 156.74 39.93 313.48 79.79 478.73 120.39 66.09-137.68 145.42-267.41 229.44-401.78-77.41-104.81-163.35-226.04-239.82-366.74-17.93-33.14-10.39-74.41 17-99.89 179.41-163.83 405.07-306.49 670.39-423.78 38.7-17.19 84.98-2.06 104.81 34.93 78.37 138.54 148.25 282.91 210.56 430.02 154.84-22.67 311.6-28.32 467.38-16.43 72.72-140.31 149.19-285.06 244.56-436.6 22.67-36.08 69.88-48.74 107.65-29.09 194.5 101.6 378.63 225.21 546.71 367.49 45.31 38.06 88.76 77.54 133.13 116.99 22.67 20.69 54.76 49.11 65.15 93.76 6.61 22.48 1.9 46.46-11.32 65.74-37.76 56.93-76.5 113.11-116.13 170.9-51.95 74.41-104.81 150.98-159.58 234.55 45.31 113.96 91.59 230.77 134.07 348.41 139.74 14.37 315.38 43.36 503.27 121.06 29.28 11.99 49.11 39.67 50.99 71.01 15.12 255.31-17.93 488.63-102.91 713.09-12.29 33.03-42.5 55.99-79.31 53.24l-54.79-2.17c-118.97-4.82-241.72-9.72-371.08-.86-51.93 120.2-127.46 241.35-232.27 374.59 70.82 125.96 142.58 257.78 205.85 412.61 16.03 38.81.94 83.4-35.89 103.5-256.84 140.12-521.2 225.58-785.59 254l-8.51.56z" fill="#000000" fill-rule="nonzero" class="fill-000000"></path><path d="M3217.7 4440.45c-71.76 0-150.13 38.81-201.12 104.63-63.27 80.27-91.59 196.03-82.17 325.87 2.84 29.25 6.61 65.9 22.67 88.94 11.32 16.03 32.09 30.48 62.31 43.89 102.94 45.8 222.85 38.52 314.44-18.79 92.53-58.35 150.13-169.67 144.45-277.02-5.65-107.65-79.3-209.15-174.67-241.34l-11.32-3.4c-17-5.41-32.12-12.1-43.44-20.31-10.39-1.61-20.77-2.46-31.15-2.46zm-57.6 757.2c-70.82 0-141.65-14.46-207.73-43.74-58.56-26.04-101.04-58.72-129.36-100.08-38.73-55.72-48.18-120.31-51.95-170.44-13.22-170.63 28.35-326.7 116.14-439.44 108.59-139.74 290.83-201.22 442.86-149.56 11.32 3.88 20.77 9.9 29.25 17.67 157.7 54.84 273.84 213.29 283.29 386.84 9.42 167.69-77.43 334.54-221.91 425.09-77.41 48.82-169 73.66-260.59 73.66z" fill="#000000" fill-rule="nonzero" class="fill-000000"></path><path d="M3590.65 4809.27c5.67 22.08-14.16 64.96-21.7 84.69-7.55 17.19-15.1 33.81-24.54 49.49-18.9 29.17-42.5 57.3-67.99 81.02-52.89 49.83-111.42 86-178.47 111.4-27.38 10.3-55.7 17-84.02 21.92-25.51 4.26-49.11 6.61-73.66 3.88-16.06-1.71-32.12-6.8-47.22-6.91 43.44.3-4.71.56-21.7-4.33-75.56-21.63-149.19-85.09-186.02-155.24-22.67-42.48-42.5-89.69-44.38-138.62-1.9-43.81 9.45-89.31 26.44-129.54 23.61-57.79 50.99-115.57 85.92-167.13 39.67-57.89 88.75-118.41 152.03-150.42 63.25-32.39 132.19-37.66 193.57-13.6 25.48-11.99 54.76-15.84 79.31-6.42 46.28 17.58 84.98 40.04 117.07 79.04 31.19 38.44 51.95 75.83 70.82 122.37 4.74 14.45 10.39 29.09 13.22 44.19 2.84 8.89 3.78 17.74 5.68 26.63 1.87 13.89 3.77 27.76 5.65 41.65l-.94-9.45c-1.87-11.99-.94-12.47.94-1.31 1.9 13.97 3.8 28.13 5.67 42.18l.94 21.36c-.94 17.56-1.87 36.24-6.61 53.16zm847.93-235.03-136.91-461.73 288.93-415.83-710.06-502.6c-91.59 152.59-183.18 305.15-274.78 457.85l-17.93 21.7c-10.38 7.09-23.61 7.17-36.83 6.91-157.7-2.09-316.31-5.11-474.02-8.89-78.37-151.17-153.9-295.06-238.88-432.74-6.61-10.95-15.09-22.75-27.38-25.67-12.28-2.94-24.54 3.96-34.93 10.57-187.92 115.46-375.81 230.85-563.71 346.24l-13.22 11.06c-8.51 12.1-.94 28.43 5.67 41.27 70.8 128.13 155.78 248.22 252.11 357.75-84.98 159.87-174.7 308.39-271.94 450.97-23.61 34.29-50.99 70.34-89.72 82.14-33.03 9.82-67.98.67-100.07-8.78-133.13-38.14-263.45-81.48-392.81-129.81-110.46 265.97-131.23 569.92-58.54 849.32 10.39 21.33 501.4-50.24 501.4-50.24l291.77 518.4-234.17 394.5 537.26 400.52 279.49-417.25 493.82 10.01 189.8 440.3 735.54-259.76-177.51-451.32 264.39-437.94 498.56-40.9 16.03-621.39-501.37-134.66z" fill="#ffffff" fill-rule="nonzero" class="fill-ffffff"></path><path d="M3385.76 5991.35c28.32 0 53.83 13.89 68.92 37.58 86.88 133.61 143.54 266.75 195.47 396.48 200.18-28.8 399.39-93.39 595.8-192.42-61.37-136.53-129.35-257.22-195.44-374.4-17-29.55-13.22-66.46 8.48-92.63 127.48-154.94 210.57-288.75 260.62-421.02 10.39-29.28 37.76-49.68 68.92-52.7 156.74-14.99 299.32-9.42 436.22-3.96 56.66-170.15 81.2-347.09 75.56-537.83-173.74-64.1-335.21-84.5-458.9-95.18-32.12-2.73-59.5-23.87-70.82-54.39-50.99-145.04-109.52-290.62-166.19-431.51-9.45-24.65-6.61-52.67 7.55-75.05 65.15-99.81 126.52-188.56 186.02-274.32 27.38-40.31 54.76-79.87 82.14-119.43-41.54-36.83-82.14-73.55-124.65-109.07-138.78-117.93-289.87-222.26-448.51-310.94-84.02 140.22-154.84 276.19-222.82 408.2-16.06 30.03-49.11 47.11-81.2 44-181.28-18.71-364.47-11.72-543.88 20.29-37.76 6.61-76.47-13.97-90.65-50.13-55.7-138.24-118.97-274.4-189.77-405.55-196.41 92.71-367.33 200.28-508.94 320.46 74.59 127.67 155.8 238.99 228.5 335.02 19.83 27.2 21.71 64.11 3.78 92.91-104.81 166.67-203.02 324.07-276.65 491.28-16.06 36.35-55.72 56-94.43 46.55-163.35-39.75-318.22-78.83-472.12-117.74-74.59 250.61-92.53 482.05-50.99 689.85 96.3-16.03 188.86-35.87 279.49-55.03 50.05-10.79 100.1-21.44 150.13-31.45 38.73-7.66 77.43 13.11 92.56 49.38 83.08 201.49 172.8 362.11 276.65 490.98 20.77 27.2 23.61 64.88 5.67 94.43-85.94 138.62-165.25 252.96-241.72 361.36 118.97 136.16 268.17 246.72 436.22 324.05 15.1-28.05 29.28-55.62 43.44-82.89 50.99-96.41 98.2-187.33 149.19-277.61 16.03-28.43 47.21-44.27 80.24-41.46 159.58 16.81 330.48 29.01 494.79 4.74l11.32-.86zm211.5 605.73c-33.03 0-64.21-20.39-76.47-51.93-51.93-132.2-101.98-257.78-176.57-383.55-145.42 15.47-289.87 7.84-427.74-5.3-40.6 73.18-79.31 147.96-120.85 226.44-25.51 48.71-50.99 98.76-79.33 150.5-18.87 36.83-63.25 53.26-101.98 37.87-242.66-95.85-454.16-251.73-611.86-450.78-22.64-28.61-23.61-68.73-2.83-98.47 78.37-109.37 157.7-221.73 242.68-355.98-87.82-117.85-166.19-256.92-237.94-422.06-27.38 5.75-54.76 11.61-83.11 17.45-115.2 24.76-235.11 50.35-365.41 68.47-40.6 5.86-79.33-19.91-90.65-59.96-74.59-277.05-53.83-589.59 61.37-928.92 13.22-40.71 56.66-63.65 98.2-53.26 156.74 39.93 313.48 79.79 478.73 120.39 66.09-137.68 145.42-267.41 229.44-401.78-77.41-104.81-163.35-226.04-239.82-366.74-17.93-33.14-10.39-74.41 17-99.89 179.41-163.83 405.07-306.49 670.39-423.78 38.7-17.19 84.98-2.06 104.81 34.93 78.37 138.54 148.25 282.91 210.56 430.02 154.84-22.67 311.6-28.32 467.38-16.43 72.72-140.31 149.19-285.06 244.56-436.6 22.67-36.08 69.88-48.74 107.65-29.09 194.5 101.6 378.63 225.21 546.71 367.49 45.31 38.06 88.76 77.54 133.13 116.99 22.67 20.69 54.76 49.11 65.15 93.76 6.61 22.48 1.9 46.46-11.32 65.74-37.76 56.93-76.5 113.11-116.13 170.9-51.95 74.41-104.81 150.98-159.58 234.55 45.31 113.96 91.59 230.77 134.07 348.41 139.74 14.37 315.38 43.36 503.27 121.06 29.28 11.99 49.11 39.67 50.99 71.01 15.12 255.31-17.93 488.63-102.91 713.09-12.29 33.03-42.5 55.99-79.31 53.24l-54.79-2.17c-118.97-4.82-241.72-9.72-371.08-.86-51.93 120.2-127.46 241.35-232.27 374.59 70.82 125.96 142.58 257.78 205.85 412.61 16.03 38.81.94 83.4-35.89 103.5-256.84 140.12-521.2 225.58-785.59 254l-8.51.56z" fill="#000000" fill-rule="nonzero" class="fill-000000"></path><path d="M3217.7 4440.45c-71.76 0-150.13 38.81-201.12 104.63-63.27 80.27-91.59 196.03-82.17 325.87 2.84 29.25 6.61 65.9 22.67 88.94 11.32 16.03 32.09 30.48 62.31 43.89 102.94 45.8 222.85 38.52 314.44-18.79 92.53-58.35 150.13-169.67 144.45-277.02-5.65-107.65-79.3-209.15-174.67-241.34l-11.32-3.4c-17-5.41-32.12-12.1-43.44-20.31-10.39-1.61-20.77-2.46-31.15-2.46zm-57.6 757.2c-70.82 0-141.65-14.46-207.73-43.74-58.56-26.04-101.04-58.72-129.36-100.08-38.73-55.72-48.18-120.31-51.95-170.44-13.22-170.63 28.35-326.7 116.14-439.44 108.59-139.74 290.83-201.22 442.86-149.56 11.32 3.88 20.77 9.9 29.25 17.67 157.7 54.84 273.84 213.29 283.29 386.84 9.42 167.69-77.43 334.54-221.91 425.09-77.41 48.82-169 73.66-260.59 73.66z" fill="#000000" fill-rule="nonzero" class="fill-000000"></path><path d="M3590.65 4809.27c5.67 22.08-14.16 64.96-21.7 84.69-7.55 17.19-15.1 33.81-24.54 49.49-18.9 29.17-42.5 57.3-67.99 81.02-52.89 49.83-111.42 86-178.47 111.4-27.38 10.3-55.7 17-84.02 21.92-25.51 4.26-49.11 6.61-73.66 3.88-16.06-1.71-32.12-6.8-47.22-6.91 43.44.3-4.71.56-21.7-4.33-75.56-21.63-149.19-85.09-186.02-155.24-22.67-42.48-42.5-89.69-44.38-138.62-1.9-43.81 9.45-89.31 26.44-129.54 23.61-57.79 50.99-115.57 85.92-167.13 39.67-57.89 88.75-118.41 152.03-150.42 63.25-32.39 132.19-37.66 193.57-13.6 25.48-11.99 54.76-15.84 79.31-6.42 46.28 17.58 84.98 40.04 117.07 79.04 31.19 38.44 51.95 75.83 70.82 122.37 4.74 14.45 10.39 29.09 13.22 44.19 2.84 8.89 3.78 17.74 5.68 26.63 1.87 13.89 3.77 27.76 5.65 41.65l-.94-9.45c-1.87-11.99-.94-12.47.94-1.31 1.9 13.97 3.8 28.13 5.67 42.18l.94 21.36c-.94 17.56-1.87 36.24-6.61 53.16zm847.93-235.03-136.91-461.73 288.93-415.83-710.06-502.6c-91.59 152.59-183.18 305.15-274.78 457.85l-17.93 21.7c-10.38 7.09-23.61 7.17-36.83 6.91-157.7-2.09-316.31-5.11-474.02-8.89-78.37-151.17-153.9-295.06-238.88-432.74-6.61-10.95-15.09-22.75-27.38-25.67-12.28-2.94-24.54 3.96-34.93 10.57-187.92 115.46-375.81 230.85-563.71 346.24l-13.22 11.06c-8.51 12.1-.94 28.43 5.67 41.27 70.8 128.13 155.78 248.22 252.11 357.75-84.98 159.87-174.7 308.39-271.94 450.97-23.61 34.29-50.99 70.34-89.72 82.14-33.03 9.82-67.98.67-100.07-8.78-133.13-38.14-263.45-81.48-392.81-129.81-110.46 265.97-131.23 569.92-58.54 849.32 10.39 21.33 501.4-50.24 501.4-50.24l291.77 518.4-234.17 394.5 537.26 400.52 279.49-417.25 493.82 10.01 189.8 440.3 735.54-259.76-177.51-451.32 264.39-437.94 498.56-40.9 16.03-621.39-501.37-134.66z" fill="#ffffff" fill-rule="nonzero" class="fill-ffffff"></path><path d="M3161.98 5162.79c-7.55 0-14.16-.3-21.7-1.13-16.06-1.71-32.12-6.8-47.22-6.91 9.45.11 14.16.11 17 .11 6.61 0-25.48-.67-38.7-4.44-65.17-18.79-130.32-68.95-169.96-127.67 31.15 9.53 57.6 34.47 86.85 49.49 84.98 47.85 70.82 39.19 115.2 56.07 12.29 3.96 24.54 7.28 36.83 9.56 28.32.19 43.44.83 54.76.83 24.55 0 26.44-3.67 101.04-26.71 115.2-43.06 87.81-25.02 162.41-85.54 76.47-75.45 67.98-62.71 90.63-135.59 5.67-23.05 19.83-38.25 37.77-46.17-4.71 18.5-13.22 37.77-17.93 49.28-7.55 17.19-15.1 33.81-24.54 49.49-18.9 29.17-42.5 57.3-67.99 81.02-52.89 49.83-111.42 86-178.47 111.4-27.38 10.3-55.7 17-84.02 21.92-17.96 3.02-34.96 5-51.95 5z" fill="#000000" fill-rule="nonzero" class="fill-000000"></path><path d="M3184.65 5381.76c-130.3 0-254-55.91-376.75-142.02-102.91-58.08-54.76-222.63 52.89-222.63 6.61 0 14.16.64 20.77 1.98 7.55.46 13.22 1.8 19.83 3.67 39.64 58.72 104.79 108.88 169.96 127.67 13.22 3.78 45.31 4.44 38.7 4.44-2.83 0-7.55 0-17-.11 15.1.11 31.16 5.19 47.22 6.91 7.55.83 14.16 1.13 21.7 1.13 17 0 33.99-1.98 51.95-5 28.32-4.93 56.64-11.62 84.02-21.92 67.05-25.4 125.59-61.56 178.47-111.4 25.48-23.72 49.09-51.85 67.99-81.02 9.44-15.69 17-32.31 24.54-49.49 4.71-11.51 13.22-30.78 17.93-49.28 9.44-4.33 20.77-6.53 31.15-6.53 33.99 0 67.98 21.44 70.82 62.42 3.77 44.86-19.83 88.11-37.77 128.53-41.54 124.72-123.68 231.71-237.94 294.87-79.31 40.04-154.84 57.79-228.5 57.79z" fill="#dedede" fill-rule="nonzero" class="fill-dedede"></path><path d="M3736.07 6492.16c-13.22 0-25.48-2.06-36.83-5.83l570.32-201.52c-5.68 13.22-14.16 26.36-24.55 39.1-125.58 121.44-311.6 128.42-472.11 162.6-13.22 3.85-25.48 5.65-36.83 5.65z" fill="#000000" fill-rule="nonzero" class="fill-000000"></path><path d="M3699.24 6486.32c-90.63-30.14-134.07-168.54-41.54-235.78 54.76-42.69 134.09-32.12 198.28-52.78 135.97-24.46 161.48-42.69 233.24-69.22 22.67-11.32 44.38-16.33 65.15-16.33 86.88 0 152.03 88.09 115.2 172.59l-570.32 201.52z" fill="#dedede" fill-rule="nonzero" class="fill-dedede"></path><path d="M4781.35 5395.81c-40.61 0-81.21-15.47-110.49-44.75l234.17-19.17c-30.22 43.33-76.47 63.92-123.68 63.92zm143.52-106.31 8.48-326.78c11.35 10.28 21.73 23.02 30.22 38.41 13.22 23.61 19.83 51.1 18.9 78.48l.94-3.88-.94 4.15c0 9-.94 17.96-2.84 26.82-8.48 60.81-27.38 118.6-51.93 174.97-.96 2.65-1.9 5.3-2.83 7.84z" fill="#000000" fill-rule="nonzero" class="fill-000000"></path><path d="M4670.86 5351.06c-26.44-26.23-44.38-63.73-45.31-111.21.94-28.43 7.55-54.87 21.7-79.41 5.68-13.14 16.06-36.64 23.61-53.56 8.51-22.37 15.12-45.39 25.51-66.83l9.42-18.15c20.8-59.66 78.39-92.05 135.97-92.05 33.06 0 66.11 10.65 91.59 32.87l-8.48 326.78c-4.71 15.95-12.29 30.14-19.83 42.39l-234.17 19.17z" fill="#dedede" fill-rule="nonzero" class="fill-dedede"></path><path d="M4504.67 3724.26zM3385.76 5991.35c28.32 0 53.83 13.89 68.92 37.58 86.88 133.61 143.54 266.75 195.47 396.48 200.18-28.8 399.39-93.39 595.8-192.42-61.37-136.53-129.35-257.22-195.44-374.4-17-29.55-13.22-66.46 8.48-92.63 127.48-155.03 210.57-288.75 260.62-420.94 10.39-29.36 37.76-49.76 68.92-52.78 156.74-14.91 299.32-9.42 436.22-3.96 56.66-170.15 81.2-347.09 75.56-537.83-173.74-64.1-335.21-84.61-458.9-95.18-32.12-2.73-59.5-23.87-70.82-54.39-50.99-145.04-109.52-290.62-166.19-431.51-9.45-24.65-6.61-52.67 7.55-75.05 65.15-99.81 126.52-188.56 186.02-274.32 27.38-40.31 54.76-79.87 82.14-119.43-41.54-36.83-82.14-73.55-124.65-109.07-138.78-117.93-289.87-222.26-448.51-310.83-84.02 140.12-154.84 276.09-222.82 408.09-16.06 30.03-49.11 47.11-81.2 44-181.28-18.71-364.47-11.72-543.88 20.29-37.76 6.61-76.47-13.97-90.65-50.13-55.7-138.24-118.97-274.3-189.77-405.63-196.41 92.8-367.33 200.37-508.94 320.65 74.59 127.56 155.8 238.88 228.5 334.91 19.83 27.2 21.71 64.11 3.78 92.91-104.81 166.67-203.02 324.07-276.65 491.28-16.06 36.35-55.72 56-94.43 46.55-163.35-39.75-318.22-78.83-472.12-117.74-74.59 250.61-92.53 482.05-50.99 689.85 96.3-16.03 188.86-35.78 279.49-55.13 50.05-10.68 100.1-21.33 150.13-31.26 38.73-7.81 77.43 13.04 92.56 49.3 83.08 201.49 172.8 362.11 276.65 490.98 20.77 27.11 23.61 64.88 5.67 94.43-85.94 138.62-165.25 252.96-241.72 361.36 118.97 136.16 268.17 246.72 436.22 324.05 15.1-28.05 29.28-55.62 43.44-82.89 50.99-96.41 98.2-187.44 149.19-277.61 16.03-28.43 47.21-44.27 80.24-41.46 159.58 16.81 330.48 29.01 494.79 4.74l11.32-.86zm211.5 605.73c-33.03 0-64.21-20.31-76.47-51.93-51.93-132.2-101.98-257.89-176.57-383.55-145.42 15.47-289.87 7.84-427.74-5.3-40.6 73.18-79.31 147.96-120.85 226.44-25.51 48.71-50.99 98.76-79.33 150.5-18.87 36.83-63.25 53.26-101.98 37.87-242.66-95.85-454.16-251.73-611.86-450.78-22.64-28.61-23.61-68.73-2.83-98.47 78.37-109.37 157.7-221.73 242.68-355.98-87.82-117.85-166.19-256.92-237.94-422.06-27.38 5.65-54.76 11.61-83.11 17.45-115.2 24.76-235.11 50.24-365.41 68.57-40.6 5.76-79.33-20.02-90.65-60.06-74.59-277.05-53.83-589.59 61.37-928.92 13.22-40.71 56.66-63.65 98.2-53.26 156.74 39.93 313.48 79.79 478.73 120.39 66.09-137.68 145.42-267.41 229.44-401.78-77.41-104.71-163.35-226.04-239.82-366.74-17.93-33.14-10.39-74.3 17-99.89 179.41-163.91 405.07-306.49 670.39-423.78 38.7-17.19 84.98-2.06 104.81 34.93 78.37 138.54 148.25 282.91 210.56 429.91 154.84-22.57 311.6-28.21 467.38-16.33 72.72-140.31 149.19-285.06 244.56-436.6 22.67-36.08 69.88-48.74 107.65-28.98 194.5 101.49 378.63 225.1 546.71 367.38 45.31 38.06 88.76 77.54 133.13 116.99 22.67 20.69 54.76 49.11 65.15 93.76 6.61 22.48 1.9 46.46-11.32 65.74-37.76 56.93-76.5 113.11-116.13 170.9-51.95 74.41-104.81 150.98-159.58 234.55 45.31 113.96 91.59 230.77 134.07 348.41 139.74 14.37 315.38 43.36 503.27 121.06 29.28 11.99 49.11 39.56 50.99 71.01 15.12 255.31-17.93 488.63-102.91 713.09-12.29 33.03-42.5 55.99-79.31 53.24l-54.79-2.17c-118.97-4.82-241.72-9.82-371.08-.86-51.93 120.2-127.46 241.35-232.27 374.59 70.82 125.96 142.58 257.78 205.85 412.61 16.03 38.81.94 83.4-35.89 103.4-256.84 140.22-521.2 225.68-785.59 254.11l-8.51.56z" fill="#000000" fill-rule="nonzero" class="fill-000000"></path><path d="M3217.7 4440.45c-71.76 0-150.13 38.81-201.12 104.63-62.33 80.27-91.59 196.03-82.17 325.87 2.84 29.25 6.61 65.9 22.67 88.94 11.32 16.14 32.09 30.48 62.31 43.89 102.94 45.8 222.85 38.52 314.44-18.87 92.53-58.27 150.13-169.59 144.45-276.94-5.65-107.65-79.3-209.15-174.67-241.34l-11.32-3.4c-17-5.41-32.12-12.1-43.44-20.31-10.39-1.61-20.77-2.46-31.15-2.46zm-57.6 757.2c-70.82 0-141.65-14.46-207.73-43.74-58.56-26.04-101.04-58.72-129.36-100.08-38.73-55.72-48.18-120.31-51.95-170.44-13.22-170.63 28.35-326.7 116.14-439.44 108.59-139.74 290.83-201.22 442.86-149.56 11.32 3.88 20.77 9.9 29.25 17.67 157.7 54.84 273.84 213.29 283.29 386.84 9.42 167.69-77.43 334.54-221.91 425.09-77.41 48.82-169 73.66-260.59 73.66z" fill="#000000" fill-rule="nonzero" class="fill-000000"></path><path d="M6255.27 9195.95c-42.48 0-86.85-16.22-127.46-54.66-221.89-243.24-385.26-533.49-521.23-831.5-112.36-241.61-210.54-492.32-236.98-759.44v.11c-.96 0-39.67-273.09-33.06-345.3-.94-13.6-.94-18.52 0-18.52v1.53c-.94-10.57-1.9-21.07-3.78-31.56-2.84-14.91-5.67-29.74-3.78-44.65-1.9-20.77 0-40.52 4.71-58.72 77.43-26.63 161.48-53.56 249.3-80.75 64.18 783.16 375.79 1497.18 856.39 2063.51-14.16 87.55-94.41 159.95-184.12 159.95z" fill="#acd4f7" fill-rule="nonzero" class="fill-96b9d7"></path><path d="M5333.7 7053.24c22.67-81.21 101.98-134.95 182.25-134.95 20.77 0 42.48 3.96 63.24 12.18.96 14.08 1.9 28.05 3.8 42.02-87.82 27.19-171.86 54.12-249.3 80.75z" fill="#000000" fill-rule="nonzero" class="fill-000000"></path><path d="M6439.39 9036c-480.6-566.33-792.21-1280.35-856.39-2063.51-1.9-13.97-2.84-27.94-3.8-42.02 21.74 8.59 41.57 21.92 59.5 40.42 63.28 59.31 57.6 146.35 43.44 225.13 4.71 180.24 7.55 141.8 31.15 313.85 54.76 337.09 118.98 440.29 247.39 715.52 135.97 276.67 291.74 518.96 426.78 656.43 46.28 49.19 60.43 104.17 51.93 154.19z" fill="#000000" fill-rule="nonzero" class="fill-000000"></path><path d="M7925.62 10362.56c-34.95-19.54-64.21-45.98-79.33-86.85-35.87-74.89-7.55-151.76 48.18-198.01 21.7 8.67 44.38 17.18 66.08 25.4 1.9 87.63-11.32 175.04-34.93 259.46z" fill="#dedede" fill-rule="nonzero" class="fill-dedede"></path><path d="M9317.4 10592.39c-407.91-25.51-829.97-27.38-1219.94-162.15-5.65-2.92-12.26-5.65-18.87-8.3 25.48-85.46 41.54-173.73 45.31-262.68 349.37 110.84 720.45 170.61 1105.68 170.61 169.02 0 336.15-11.59 499.5-33.99 36.83 45.04 75.53 88.19 118.04 129.17-11.32 28.43-30.22 55.06-59.5 76.5-46.25 40.6-114.23 41.17-171.83 55.99-98.2 16.89-197.34 33.32-298.38 34.85z" fill="#acd4f7" fill-rule="nonzero" class="fill-96b9d7"></path><path d="M9847.12 10425.05c-42.5-40.98-81.2-84.13-118.04-129.17 34.96-4.79 69.89-10.09 103.88-15.85 24.54 44.08 31.15 97.24 14.16 145.02zm-1768.53-3.11c-49.11-19.65-106.71-33.43-152.96-59.39 23.61-84.42 36.83-171.83 34.93-259.46 53.83 20.02 108.59 38.7 163.35 56.18-3.77 88.94-19.83 177.22-45.31 262.68z" fill="#000000" fill-rule="nonzero" class="fill-000000"></path><path d="M9229.58 10329.88c-385.24 0-756.31-59.77-1105.68-170.61-54.76-17.48-109.52-36.16-163.35-56.18-21.7-8.22-44.38-16.73-66.08-25.4 32.09-26.82 72.69-43.44 114.24-43.44 28.31 0 57.6 7.55 84.98 24.36l13.22 6.34c346.54 141.54 524.04 140.12 869.64 172.5 115.2 5.94 202.06 10.65 277.61 10.65 126.52 0 223.76-12.93 379.56-54.39 17-4.82 33.06-7.07 49.11-7.07 66.09 0 120.85 39.94 150.13 93.39-33.99 5.76-68.92 11.06-103.88 15.85-163.35 22.4-330.47 33.99-499.5 33.99z" fill="#000000" fill-rule="nonzero" class="fill-000000"></path></svg>